<mxfile host="app.diagrams.net" modified="2022-11-01T22:53:01.014Z" agent="5.0 (Windows NT 10.0; Win64; x64) AppleWebKit/537.36 (KHTML, like Gecko) Chrome/106.0.0.0 Safari/537.36" etag="fGbCavTI_EBOEwWey_j7" version="20.5.1" type="github" pages="6">
  <diagram id="5FqO16NwU_5ZL2j4teIe" name="Chasis">
    <mxGraphModel dx="1351" dy="913" grid="1" gridSize="10" guides="1" tooltips="1" connect="1" arrows="1" fold="1" page="1" pageScale="1" pageWidth="827" pageHeight="1169" math="0" shadow="0">
      <root>
        <mxCell id="0" />
        <mxCell id="1" parent="0" />
        <mxCell id="cYBjcVC3gLSo0TB_lw3A-2" value="Chasis" style="rounded=0;whiteSpace=wrap;html=1;" vertex="1" parent="1">
          <mxGeometry x="220" y="90" width="120" height="60" as="geometry" />
        </mxCell>
        <mxCell id="cYBjcVC3gLSo0TB_lw3A-3" value="Cubo" style="rounded=0;whiteSpace=wrap;html=1;" vertex="1" parent="1">
          <mxGeometry x="-208" y="910" width="120" height="60" as="geometry" />
        </mxCell>
        <mxCell id="cYBjcVC3gLSo0TB_lw3A-4" value="Poligono" style="rounded=0;whiteSpace=wrap;html=1;" vertex="1" parent="1">
          <mxGeometry x="80" y="490" width="120" height="60" as="geometry" />
        </mxCell>
        <mxCell id="cYBjcVC3gLSo0TB_lw3A-6" value="Pieza 1" style="rounded=0;whiteSpace=wrap;html=1;" vertex="1" parent="1">
          <mxGeometry x="-490" y="720" width="120" height="60" as="geometry" />
        </mxCell>
        <mxCell id="cYBjcVC3gLSo0TB_lw3A-7" value="Pieza 2" style="rounded=0;whiteSpace=wrap;html=1;" vertex="1" parent="1">
          <mxGeometry x="-350" y="720" width="120" height="60" as="geometry" />
        </mxCell>
        <mxCell id="cYBjcVC3gLSo0TB_lw3A-8" value="Pieza 3" style="rounded=0;whiteSpace=wrap;html=1;" vertex="1" parent="1">
          <mxGeometry x="-210" y="720" width="120" height="60" as="geometry" />
        </mxCell>
        <mxCell id="cYBjcVC3gLSo0TB_lw3A-9" value="Pieza 4" style="rounded=0;whiteSpace=wrap;html=1;" vertex="1" parent="1">
          <mxGeometry x="-70" y="720" width="120" height="60" as="geometry" />
        </mxCell>
        <mxCell id="cYBjcVC3gLSo0TB_lw3A-10" value="Pieza 6" style="rounded=0;whiteSpace=wrap;html=1;" vertex="1" parent="1">
          <mxGeometry x="280" y="710" width="120" height="60" as="geometry" />
        </mxCell>
        <mxCell id="cYBjcVC3gLSo0TB_lw3A-11" value="Pieza 5" style="rounded=0;whiteSpace=wrap;html=1;" vertex="1" parent="1">
          <mxGeometry x="80" y="380" width="120" height="60" as="geometry" />
        </mxCell>
        <mxCell id="cYBjcVC3gLSo0TB_lw3A-13" value="" style="endArrow=classic;html=1;rounded=0;exitX=0.5;exitY=1;exitDx=0;exitDy=0;entryX=0;entryY=0.5;entryDx=0;entryDy=0;" edge="1" parent="1" source="cYBjcVC3gLSo0TB_lw3A-6" target="cYBjcVC3gLSo0TB_lw3A-3">
          <mxGeometry width="50" height="50" relative="1" as="geometry">
            <mxPoint x="-178" y="900" as="sourcePoint" />
            <mxPoint x="-128" y="850" as="targetPoint" />
          </mxGeometry>
        </mxCell>
        <mxCell id="cYBjcVC3gLSo0TB_lw3A-18" value="S (4,0.1,0.5))" style="edgeLabel;html=1;align=center;verticalAlign=middle;resizable=0;points=[];" vertex="1" connectable="0" parent="cYBjcVC3gLSo0TB_lw3A-13">
          <mxGeometry x="-0.5235" y="1" relative="1" as="geometry">
            <mxPoint x="-1" as="offset" />
          </mxGeometry>
        </mxCell>
        <mxCell id="cYBjcVC3gLSo0TB_lw3A-14" value="" style="endArrow=classic;html=1;rounded=0;exitX=0.5;exitY=1;exitDx=0;exitDy=0;entryX=0.25;entryY=0;entryDx=0;entryDy=0;" edge="1" parent="1" source="cYBjcVC3gLSo0TB_lw3A-7" target="cYBjcVC3gLSo0TB_lw3A-3">
          <mxGeometry width="50" height="50" relative="1" as="geometry">
            <mxPoint x="-178" y="900" as="sourcePoint" />
            <mxPoint x="-128" y="850" as="targetPoint" />
          </mxGeometry>
        </mxCell>
        <mxCell id="cYBjcVC3gLSo0TB_lw3A-19" value="S (2.5, 0.1, 2.25)" style="edgeLabel;html=1;align=center;verticalAlign=middle;resizable=0;points=[];" vertex="1" connectable="0" parent="cYBjcVC3gLSo0TB_lw3A-14">
          <mxGeometry x="-0.4711" y="-3" relative="1" as="geometry">
            <mxPoint as="offset" />
          </mxGeometry>
        </mxCell>
        <mxCell id="cYBjcVC3gLSo0TB_lw3A-15" value="" style="endArrow=classic;html=1;rounded=0;exitX=0.5;exitY=1;exitDx=0;exitDy=0;entryX=0.5;entryY=0;entryDx=0;entryDy=0;" edge="1" parent="1" source="cYBjcVC3gLSo0TB_lw3A-8" target="cYBjcVC3gLSo0TB_lw3A-3">
          <mxGeometry width="50" height="50" relative="1" as="geometry">
            <mxPoint x="-178" y="900" as="sourcePoint" />
            <mxPoint x="-128" y="850" as="targetPoint" />
          </mxGeometry>
        </mxCell>
        <mxCell id="cYBjcVC3gLSo0TB_lw3A-20" value="S (4, 0.1, 4)" style="edgeLabel;html=1;align=center;verticalAlign=middle;resizable=0;points=[];" vertex="1" connectable="0" parent="cYBjcVC3gLSo0TB_lw3A-15">
          <mxGeometry x="-0.4436" y="1" relative="1" as="geometry">
            <mxPoint as="offset" />
          </mxGeometry>
        </mxCell>
        <mxCell id="cYBjcVC3gLSo0TB_lw3A-16" value="" style="endArrow=classic;html=1;rounded=0;exitX=0.5;exitY=1;exitDx=0;exitDy=0;entryX=0.75;entryY=0;entryDx=0;entryDy=0;" edge="1" parent="1" source="cYBjcVC3gLSo0TB_lw3A-9" target="cYBjcVC3gLSo0TB_lw3A-3">
          <mxGeometry width="50" height="50" relative="1" as="geometry">
            <mxPoint x="-178" y="900" as="sourcePoint" />
            <mxPoint x="-128" y="850" as="targetPoint" />
          </mxGeometry>
        </mxCell>
        <mxCell id="cYBjcVC3gLSo0TB_lw3A-21" value="S (2.5, 0.1, 2)" style="edgeLabel;html=1;align=center;verticalAlign=middle;resizable=0;points=[];" vertex="1" connectable="0" parent="cYBjcVC3gLSo0TB_lw3A-16">
          <mxGeometry x="-0.4604" y="-1" relative="1" as="geometry">
            <mxPoint as="offset" />
          </mxGeometry>
        </mxCell>
        <mxCell id="cYBjcVC3gLSo0TB_lw3A-17" value="" style="endArrow=classic;html=1;rounded=0;exitX=0.5;exitY=1;exitDx=0;exitDy=0;entryX=1;entryY=0.5;entryDx=0;entryDy=0;" edge="1" parent="1" source="cYBjcVC3gLSo0TB_lw3A-10" target="cYBjcVC3gLSo0TB_lw3A-3">
          <mxGeometry width="50" height="50" relative="1" as="geometry">
            <mxPoint x="-178" y="900" as="sourcePoint" />
            <mxPoint x="-128" y="850" as="targetPoint" />
          </mxGeometry>
        </mxCell>
        <mxCell id="cYBjcVC3gLSo0TB_lw3A-22" value="S (4, 0.1, 1)" style="edgeLabel;html=1;align=center;verticalAlign=middle;resizable=0;points=[];" vertex="1" connectable="0" parent="cYBjcVC3gLSo0TB_lw3A-17">
          <mxGeometry x="-0.5533" y="1" relative="1" as="geometry">
            <mxPoint x="5" y="-1" as="offset" />
          </mxGeometry>
        </mxCell>
        <mxCell id="cYBjcVC3gLSo0TB_lw3A-23" value="Pieza 1+2" style="rounded=0;whiteSpace=wrap;html=1;" vertex="1" parent="1">
          <mxGeometry x="-430" y="550" width="120" height="60" as="geometry" />
        </mxCell>
        <mxCell id="cYBjcVC3gLSo0TB_lw3A-24" value="" style="endArrow=classic;html=1;rounded=0;exitX=0.5;exitY=1;exitDx=0;exitDy=0;entryX=0.5;entryY=0;entryDx=0;entryDy=0;" edge="1" parent="1" source="cYBjcVC3gLSo0TB_lw3A-23" target="cYBjcVC3gLSo0TB_lw3A-6">
          <mxGeometry width="50" height="50" relative="1" as="geometry">
            <mxPoint x="-120" y="720" as="sourcePoint" />
            <mxPoint x="-70" y="670" as="targetPoint" />
          </mxGeometry>
        </mxCell>
        <mxCell id="cYBjcVC3gLSo0TB_lw3A-37" value="T (0,0,ancho2/2+ancho1/2)" style="edgeLabel;html=1;align=center;verticalAlign=middle;resizable=0;points=[];" vertex="1" connectable="0" parent="cYBjcVC3gLSo0TB_lw3A-24">
          <mxGeometry x="-0.2759" y="-5" relative="1" as="geometry">
            <mxPoint x="-14" y="27" as="offset" />
          </mxGeometry>
        </mxCell>
        <mxCell id="cYBjcVC3gLSo0TB_lw3A-25" value="" style="endArrow=classic;html=1;rounded=0;entryX=0.5;entryY=0;entryDx=0;entryDy=0;exitX=0.5;exitY=1;exitDx=0;exitDy=0;" edge="1" parent="1" source="cYBjcVC3gLSo0TB_lw3A-23" target="cYBjcVC3gLSo0TB_lw3A-7">
          <mxGeometry width="50" height="50" relative="1" as="geometry">
            <mxPoint x="-360" y="610" as="sourcePoint" />
            <mxPoint x="-70" y="670" as="targetPoint" />
          </mxGeometry>
        </mxCell>
        <mxCell id="cYBjcVC3gLSo0TB_lw3A-26" value="Pieza 1+2+3" style="rounded=0;whiteSpace=wrap;html=1;" vertex="1" parent="1">
          <mxGeometry x="-280" y="440" width="120" height="60" as="geometry" />
        </mxCell>
        <mxCell id="cYBjcVC3gLSo0TB_lw3A-27" value="Pieza 1+2+3+4" style="rounded=0;whiteSpace=wrap;html=1;" vertex="1" parent="1">
          <mxGeometry x="-140" y="330" width="120" height="60" as="geometry" />
        </mxCell>
        <mxCell id="cYBjcVC3gLSo0TB_lw3A-28" value="" style="endArrow=classic;html=1;rounded=0;exitX=0.5;exitY=1;exitDx=0;exitDy=0;entryX=0.5;entryY=0;entryDx=0;entryDy=0;" edge="1" parent="1" source="cYBjcVC3gLSo0TB_lw3A-26" target="cYBjcVC3gLSo0TB_lw3A-23">
          <mxGeometry width="50" height="50" relative="1" as="geometry">
            <mxPoint x="-120" y="720" as="sourcePoint" />
            <mxPoint x="-70" y="670" as="targetPoint" />
          </mxGeometry>
        </mxCell>
        <mxCell id="cYBjcVC3gLSo0TB_lw3A-38" value="T (0,0,ancho3/2+ancho2/2)" style="edgeLabel;html=1;align=center;verticalAlign=middle;resizable=0;points=[];" vertex="1" connectable="0" parent="cYBjcVC3gLSo0TB_lw3A-28">
          <mxGeometry x="-0.368" relative="1" as="geometry">
            <mxPoint x="-33" y="4" as="offset" />
          </mxGeometry>
        </mxCell>
        <mxCell id="cYBjcVC3gLSo0TB_lw3A-29" value="" style="endArrow=classic;html=1;rounded=0;exitX=0.5;exitY=1;exitDx=0;exitDy=0;entryX=0.5;entryY=0;entryDx=0;entryDy=0;" edge="1" parent="1" source="cYBjcVC3gLSo0TB_lw3A-26" target="cYBjcVC3gLSo0TB_lw3A-8">
          <mxGeometry width="50" height="50" relative="1" as="geometry">
            <mxPoint x="-120" y="720" as="sourcePoint" />
            <mxPoint x="-70" y="670" as="targetPoint" />
          </mxGeometry>
        </mxCell>
        <mxCell id="cYBjcVC3gLSo0TB_lw3A-30" value="" style="endArrow=classic;html=1;rounded=0;exitX=0.5;exitY=1;exitDx=0;exitDy=0;entryX=0.5;entryY=0;entryDx=0;entryDy=0;" edge="1" parent="1" source="cYBjcVC3gLSo0TB_lw3A-27" target="cYBjcVC3gLSo0TB_lw3A-26">
          <mxGeometry width="50" height="50" relative="1" as="geometry">
            <mxPoint x="-120" y="720" as="sourcePoint" />
            <mxPoint x="-70" y="670" as="targetPoint" />
          </mxGeometry>
        </mxCell>
        <mxCell id="cYBjcVC3gLSo0TB_lw3A-41" value="T (0,0,ancho4/2+ancho3/2)" style="edgeLabel;html=1;align=center;verticalAlign=middle;resizable=0;points=[];" vertex="1" connectable="0" parent="cYBjcVC3gLSo0TB_lw3A-30">
          <mxGeometry x="-0.1869" y="3" relative="1" as="geometry">
            <mxPoint x="-24" as="offset" />
          </mxGeometry>
        </mxCell>
        <mxCell id="cYBjcVC3gLSo0TB_lw3A-31" value="" style="endArrow=classic;html=1;rounded=0;exitX=0.5;exitY=1;exitDx=0;exitDy=0;entryX=0.5;entryY=0;entryDx=0;entryDy=0;" edge="1" parent="1" source="cYBjcVC3gLSo0TB_lw3A-27" target="cYBjcVC3gLSo0TB_lw3A-9">
          <mxGeometry width="50" height="50" relative="1" as="geometry">
            <mxPoint x="-120" y="720" as="sourcePoint" />
            <mxPoint x="-70" y="670" as="targetPoint" />
          </mxGeometry>
        </mxCell>
        <mxCell id="cYBjcVC3gLSo0TB_lw3A-32" value="" style="endArrow=classic;html=1;rounded=0;entryX=0.5;entryY=0;entryDx=0;entryDy=0;exitX=0.5;exitY=1;exitDx=0;exitDy=0;" edge="1" parent="1" source="cYBjcVC3gLSo0TB_lw3A-33" target="cYBjcVC3gLSo0TB_lw3A-11">
          <mxGeometry width="50" height="50" relative="1" as="geometry">
            <mxPoint x="70" y="310" as="sourcePoint" />
            <mxPoint x="-70" y="670" as="targetPoint" />
          </mxGeometry>
        </mxCell>
        <mxCell id="cYBjcVC3gLSo0TB_lw3A-33" value="Pieza 1+2+3+4+5" style="rounded=0;whiteSpace=wrap;html=1;" vertex="1" parent="1">
          <mxGeometry x="50" y="220" width="120" height="60" as="geometry" />
        </mxCell>
        <mxCell id="cYBjcVC3gLSo0TB_lw3A-36" value="" style="endArrow=classic;html=1;rounded=0;exitX=0.5;exitY=1;exitDx=0;exitDy=0;entryX=0.5;entryY=0;entryDx=0;entryDy=0;" edge="1" parent="1" source="cYBjcVC3gLSo0TB_lw3A-33" target="cYBjcVC3gLSo0TB_lw3A-27">
          <mxGeometry width="50" height="50" relative="1" as="geometry">
            <mxPoint x="170" y="720" as="sourcePoint" />
            <mxPoint x="220" y="670" as="targetPoint" />
          </mxGeometry>
        </mxCell>
        <mxCell id="cYBjcVC3gLSo0TB_lw3A-42" value="T (0,0,ancho4/2)" style="edgeLabel;html=1;align=center;verticalAlign=middle;resizable=0;points=[];" vertex="1" connectable="0" parent="cYBjcVC3gLSo0TB_lw3A-36">
          <mxGeometry x="0.4873" y="-1" relative="1" as="geometry">
            <mxPoint x="51" y="-16" as="offset" />
          </mxGeometry>
        </mxCell>
        <mxCell id="cYBjcVC3gLSo0TB_lw3A-44" value="" style="endArrow=classic;html=1;rounded=0;exitX=0.5;exitY=1;exitDx=0;exitDy=0;" edge="1" parent="1" source="cYBjcVC3gLSo0TB_lw3A-11" target="cYBjcVC3gLSo0TB_lw3A-4">
          <mxGeometry width="50" height="50" relative="1" as="geometry">
            <mxPoint x="200" y="580" as="sourcePoint" />
            <mxPoint x="250" y="530" as="targetPoint" />
          </mxGeometry>
        </mxCell>
        <mxCell id="V-6giukHPPgfOI1WMAVf-1" value="extrusion(0, 0.1, 1)" style="edgeLabel;html=1;align=center;verticalAlign=middle;resizable=0;points=[];" vertex="1" connectable="0" parent="cYBjcVC3gLSo0TB_lw3A-44">
          <mxGeometry x="-0.48" y="-2" relative="1" as="geometry">
            <mxPoint x="2" y="7" as="offset" />
          </mxGeometry>
        </mxCell>
        <mxCell id="cYBjcVC3gLSo0TB_lw3A-48" value="P&lt;sub&gt;1&lt;/sub&gt;(-2, 0.1, 0)" style="rounded=0;whiteSpace=wrap;html=1;" vertex="1" parent="1">
          <mxGeometry x="-10" y="590" width="80" height="30" as="geometry" />
        </mxCell>
        <mxCell id="cYBjcVC3gLSo0TB_lw3A-49" value="P&lt;sub&gt;2&lt;/sub&gt;(-2, 0, 0)" style="rounded=0;whiteSpace=wrap;html=1;" vertex="1" parent="1">
          <mxGeometry x="50" y="634" width="80" height="36" as="geometry" />
        </mxCell>
        <mxCell id="cYBjcVC3gLSo0TB_lw3A-50" value="P&lt;sub&gt;3&lt;/sub&gt;(2, 0, 0)" style="rounded=0;whiteSpace=wrap;html=1;" vertex="1" parent="1">
          <mxGeometry x="150" y="634" width="80" height="36" as="geometry" />
        </mxCell>
        <mxCell id="cYBjcVC3gLSo0TB_lw3A-52" value="P&lt;sub&gt;4&lt;/sub&gt;(2, 0.1, 0)" style="rounded=0;whiteSpace=wrap;html=1;" vertex="1" parent="1">
          <mxGeometry x="200" y="587" width="80" height="36" as="geometry" />
        </mxCell>
        <mxCell id="cYBjcVC3gLSo0TB_lw3A-55" value="" style="endArrow=classic;html=1;rounded=0;exitX=0.5;exitY=1;exitDx=0;exitDy=0;entryX=0.5;entryY=0;entryDx=0;entryDy=0;" edge="1" parent="1" source="cYBjcVC3gLSo0TB_lw3A-4" target="cYBjcVC3gLSo0TB_lw3A-48">
          <mxGeometry width="50" height="50" relative="1" as="geometry">
            <mxPoint x="150" y="580" as="sourcePoint" />
            <mxPoint x="120" y="610" as="targetPoint" />
          </mxGeometry>
        </mxCell>
        <mxCell id="cYBjcVC3gLSo0TB_lw3A-56" value="" style="endArrow=classic;html=1;rounded=0;exitX=0.5;exitY=1;exitDx=0;exitDy=0;entryX=0.5;entryY=0;entryDx=0;entryDy=0;" edge="1" parent="1" source="cYBjcVC3gLSo0TB_lw3A-4" target="cYBjcVC3gLSo0TB_lw3A-49">
          <mxGeometry width="50" height="50" relative="1" as="geometry">
            <mxPoint x="150" y="580" as="sourcePoint" />
            <mxPoint x="200" y="530" as="targetPoint" />
          </mxGeometry>
        </mxCell>
        <mxCell id="cYBjcVC3gLSo0TB_lw3A-57" value="" style="endArrow=classic;html=1;rounded=0;exitX=0.5;exitY=1;exitDx=0;exitDy=0;entryX=0.5;entryY=0;entryDx=0;entryDy=0;" edge="1" parent="1" source="cYBjcVC3gLSo0TB_lw3A-4" target="cYBjcVC3gLSo0TB_lw3A-50">
          <mxGeometry width="50" height="50" relative="1" as="geometry">
            <mxPoint x="150" y="580" as="sourcePoint" />
            <mxPoint x="200" y="530" as="targetPoint" />
          </mxGeometry>
        </mxCell>
        <mxCell id="cYBjcVC3gLSo0TB_lw3A-58" value="" style="endArrow=classic;html=1;rounded=0;exitX=0.5;exitY=1;exitDx=0;exitDy=0;entryX=0.5;entryY=0;entryDx=0;entryDy=0;" edge="1" parent="1" source="cYBjcVC3gLSo0TB_lw3A-4" target="cYBjcVC3gLSo0TB_lw3A-52">
          <mxGeometry width="50" height="50" relative="1" as="geometry">
            <mxPoint x="150" y="580" as="sourcePoint" />
            <mxPoint x="200" y="530" as="targetPoint" />
          </mxGeometry>
        </mxCell>
        <mxCell id="cYBjcVC3gLSo0TB_lw3A-59" value="" style="endArrow=classic;html=1;rounded=0;exitX=0.5;exitY=1;exitDx=0;exitDy=0;entryX=0.5;entryY=0;entryDx=0;entryDy=0;" edge="1" parent="1" source="cYBjcVC3gLSo0TB_lw3A-2" target="cYBjcVC3gLSo0TB_lw3A-10">
          <mxGeometry width="50" height="50" relative="1" as="geometry">
            <mxPoint x="150" y="580" as="sourcePoint" />
            <mxPoint x="200" y="530" as="targetPoint" />
          </mxGeometry>
        </mxCell>
        <mxCell id="cYBjcVC3gLSo0TB_lw3A-60" value="T (0, 0.1, ancho6/2)" style="edgeLabel;html=1;align=center;verticalAlign=middle;resizable=0;points=[];" vertex="1" connectable="0" parent="cYBjcVC3gLSo0TB_lw3A-59">
          <mxGeometry x="0.2775" y="-3" relative="1" as="geometry">
            <mxPoint y="1" as="offset" />
          </mxGeometry>
        </mxCell>
        <mxCell id="cYBjcVC3gLSo0TB_lw3A-61" value="" style="endArrow=classic;html=1;rounded=0;exitX=0.5;exitY=1;exitDx=0;exitDy=0;entryX=0.5;entryY=0;entryDx=0;entryDy=0;" edge="1" parent="1" source="cYBjcVC3gLSo0TB_lw3A-2" target="cYBjcVC3gLSo0TB_lw3A-33">
          <mxGeometry width="50" height="50" relative="1" as="geometry">
            <mxPoint x="150" y="580" as="sourcePoint" />
            <mxPoint x="200" y="530" as="targetPoint" />
          </mxGeometry>
        </mxCell>
        <mxCell id="cYBjcVC3gLSo0TB_lw3A-62" value="&lt;span style=&quot;color: rgba(0, 0, 0, 0); font-family: monospace; font-size: 0px; text-align: start; background-color: rgb(248, 249, 250);&quot;&gt;%3CmxGraphModel%3E%3Croot%3E%3CmxCell%20id%3D%220%22%2F%3E%3CmxCell%20id%3D%221%22%20parent%3D%220%22%2F%3E%3CmxCell%20id%3D%222%22%20value%3D%22P3(2%2C%200%2C%200)%22%20style%3D%22rounded%3D0%3BwhiteSpace%3Dwrap%3Bhtml%3D1%3B%22%20vertex%3D%221%22%20parent%3D%221%22%3E%3CmxGeometry%20x%3D%22534%22%20y%3D%22490%22%20width%3D%22120%22%20height%3D%2260%22%20as%3D%22geometry%22%2F%3E%3C%2FmxCell%3E%3C%2Froot%3E%3C%2FmxGraphModel%3TRT&lt;/span&gt;" style="edgeLabel;html=1;align=center;verticalAlign=middle;resizable=0;points=[];" vertex="1" connectable="0" parent="cYBjcVC3gLSo0TB_lw3A-61">
          <mxGeometry x="-0.2223" relative="1" as="geometry">
            <mxPoint x="1" as="offset" />
          </mxGeometry>
        </mxCell>
        <mxCell id="cYBjcVC3gLSo0TB_lw3A-63" value="T (0, 0, ancho5+ancho6)" style="edgeLabel;html=1;align=center;verticalAlign=middle;resizable=0;points=[];" vertex="1" connectable="0" parent="cYBjcVC3gLSo0TB_lw3A-61">
          <mxGeometry x="0.2096" y="5" relative="1" as="geometry">
            <mxPoint y="-9" as="offset" />
          </mxGeometry>
        </mxCell>
      </root>
    </mxGraphModel>
  </diagram>
  <diagram id="jtql90cX2GXcJZsG7xXu" name="Guardabarros">
    <mxGraphModel dx="524" dy="913" grid="1" gridSize="10" guides="1" tooltips="1" connect="1" arrows="1" fold="1" page="1" pageScale="1" pageWidth="827" pageHeight="1169" math="0" shadow="0">
      <root>
        <mxCell id="0" />
        <mxCell id="1" parent="0" />
        <mxCell id="YWl4SaaRgPi7A-b4CHQc-1" value="Guardabarros" style="rounded=0;whiteSpace=wrap;html=1;" vertex="1" parent="1">
          <mxGeometry x="200" y="30" width="230" height="60" as="geometry" />
        </mxCell>
        <mxCell id="YWl4SaaRgPi7A-b4CHQc-3" value="Poligono[i]" style="rounded=0;whiteSpace=wrap;html=1;" vertex="1" parent="1">
          <mxGeometry x="250" y="460" width="120" height="60" as="geometry" />
        </mxCell>
        <mxCell id="YWl4SaaRgPi7A-b4CHQc-4" value="Extrusion[LADOS_CIRCULO/4]" style="rounded=0;whiteSpace=wrap;html=1;" vertex="1" parent="1">
          <mxGeometry x="430" y="340" width="180" height="60" as="geometry" />
        </mxCell>
        <mxCell id="YWl4SaaRgPi7A-b4CHQc-5" value="..." style="text;html=1;align=center;verticalAlign=middle;resizable=0;points=[];autosize=1;strokeColor=none;fillColor=none;" vertex="1" parent="1">
          <mxGeometry x="195" y="355" width="30" height="30" as="geometry" />
        </mxCell>
        <mxCell id="YWl4SaaRgPi7A-b4CHQc-6" value="..." style="text;html=1;align=center;verticalAlign=middle;resizable=0;points=[];autosize=1;strokeColor=none;fillColor=none;" vertex="1" parent="1">
          <mxGeometry x="383.5" y="355" width="30" height="30" as="geometry" />
        </mxCell>
        <mxCell id="L3F5uj6K5Kh_m014AXHH-7" value="P&lt;sub&gt;1&lt;/sub&gt;(-largo/2, alto*sen(angulo*i), ancho/2)" style="rounded=0;whiteSpace=wrap;html=1;" vertex="1" parent="1">
          <mxGeometry x="350" y="560" width="250" height="31" as="geometry" />
        </mxCell>
        <mxCell id="L3F5uj6K5Kh_m014AXHH-8" value="P&lt;sub&gt;2&lt;/sub&gt;(-largo/2, alto*sen(angulo*(i-1)), ancho/2)" style="rounded=0;whiteSpace=wrap;html=1;" vertex="1" parent="1">
          <mxGeometry x="350" y="607.5" width="250" height="36" as="geometry" />
        </mxCell>
        <mxCell id="L3F5uj6K5Kh_m014AXHH-9" value="P&lt;sub&gt;3&lt;/sub&gt;(-largo/2, 0, radio)" style="rounded=0;whiteSpace=wrap;html=1;" vertex="1" parent="1">
          <mxGeometry x="350" y="657.5" width="130" height="36" as="geometry" />
        </mxCell>
        <mxCell id="L3F5uj6K5Kh_m014AXHH-11" value="Curva" style="rounded=0;whiteSpace=wrap;html=1;" vertex="1" parent="1">
          <mxGeometry x="250" y="190" width="120" height="60" as="geometry" />
        </mxCell>
        <mxCell id="L3F5uj6K5Kh_m014AXHH-12" value="" style="endArrow=classic;html=1;rounded=0;exitX=0.5;exitY=1;exitDx=0;exitDy=0;entryX=0.5;entryY=0;entryDx=0;entryDy=0;" edge="1" parent="1" source="L3F5uj6K5Kh_m014AXHH-11" target="L3F5uj6K5Kh_m014AXHH-22">
          <mxGeometry width="50" height="50" relative="1" as="geometry">
            <mxPoint x="90" y="430" as="sourcePoint" />
            <mxPoint x="90" y="320" as="targetPoint" />
          </mxGeometry>
        </mxCell>
        <mxCell id="L3F5uj6K5Kh_m014AXHH-13" value="" style="endArrow=classic;html=1;rounded=0;exitX=0.5;exitY=1;exitDx=0;exitDy=0;entryX=0.5;entryY=0;entryDx=0;entryDy=0;" edge="1" parent="1" source="L3F5uj6K5Kh_m014AXHH-11" target="wLCo1cd0LWxURkyOtaVb-1">
          <mxGeometry width="50" height="50" relative="1" as="geometry">
            <mxPoint x="90" y="430" as="sourcePoint" />
            <mxPoint x="310" y="340" as="targetPoint" />
          </mxGeometry>
        </mxCell>
        <mxCell id="L3F5uj6K5Kh_m014AXHH-14" value="" style="endArrow=classic;html=1;rounded=0;exitX=0.5;exitY=1;exitDx=0;exitDy=0;entryX=0.5;entryY=0;entryDx=0;entryDy=0;" edge="1" parent="1" source="L3F5uj6K5Kh_m014AXHH-11" target="YWl4SaaRgPi7A-b4CHQc-4">
          <mxGeometry width="50" height="50" relative="1" as="geometry">
            <mxPoint x="460" y="430" as="sourcePoint" />
            <mxPoint x="510" y="380" as="targetPoint" />
          </mxGeometry>
        </mxCell>
        <mxCell id="L3F5uj6K5Kh_m014AXHH-15" value="P&lt;span style=&quot;font-size: 10px;&quot;&gt;4&lt;/span&gt;(-largo/2, alto*sin(angulo*(i-1)), radio)" style="rounded=0;whiteSpace=wrap;html=1;" vertex="1" parent="1">
          <mxGeometry x="350" y="707.5" width="250" height="36" as="geometry" />
        </mxCell>
        <mxCell id="L3F5uj6K5Kh_m014AXHH-18" value="" style="curved=1;endArrow=classic;html=1;rounded=0;exitX=0.25;exitY=1;exitDx=0;exitDy=0;entryX=0;entryY=0.5;entryDx=0;entryDy=0;" edge="1" parent="1" source="YWl4SaaRgPi7A-b4CHQc-3" target="L3F5uj6K5Kh_m014AXHH-7">
          <mxGeometry width="50" height="50" relative="1" as="geometry">
            <mxPoint x="420" y="500" as="sourcePoint" />
            <mxPoint x="470" y="450" as="targetPoint" />
            <Array as="points">
              <mxPoint x="280" y="550" />
            </Array>
          </mxGeometry>
        </mxCell>
        <mxCell id="L3F5uj6K5Kh_m014AXHH-19" value="" style="curved=1;endArrow=classic;html=1;rounded=0;exitX=0.25;exitY=1;exitDx=0;exitDy=0;entryX=0;entryY=0.5;entryDx=0;entryDy=0;" edge="1" parent="1" source="YWl4SaaRgPi7A-b4CHQc-3" target="L3F5uj6K5Kh_m014AXHH-8">
          <mxGeometry width="50" height="50" relative="1" as="geometry">
            <mxPoint x="320" y="510" as="sourcePoint" />
            <mxPoint x="350" y="555.5" as="targetPoint" />
            <Array as="points">
              <mxPoint x="280" y="596" />
            </Array>
          </mxGeometry>
        </mxCell>
        <mxCell id="L3F5uj6K5Kh_m014AXHH-20" value="" style="curved=1;endArrow=classic;html=1;rounded=0;exitX=0.25;exitY=1;exitDx=0;exitDy=0;entryX=0;entryY=0.5;entryDx=0;entryDy=0;" edge="1" parent="1" source="YWl4SaaRgPi7A-b4CHQc-3" target="L3F5uj6K5Kh_m014AXHH-9">
          <mxGeometry width="50" height="50" relative="1" as="geometry">
            <mxPoint x="320" y="510" as="sourcePoint" />
            <mxPoint x="350" y="605.5" as="targetPoint" />
            <Array as="points">
              <mxPoint x="280" y="640" />
            </Array>
          </mxGeometry>
        </mxCell>
        <mxCell id="L3F5uj6K5Kh_m014AXHH-21" value="" style="curved=1;endArrow=classic;html=1;rounded=0;exitX=0.25;exitY=1;exitDx=0;exitDy=0;entryX=0;entryY=0.5;entryDx=0;entryDy=0;" edge="1" parent="1" source="YWl4SaaRgPi7A-b4CHQc-3" target="L3F5uj6K5Kh_m014AXHH-15">
          <mxGeometry width="50" height="50" relative="1" as="geometry">
            <mxPoint x="320" y="510" as="sourcePoint" />
            <mxPoint x="350" y="655.5" as="targetPoint" />
            <Array as="points">
              <mxPoint x="280" y="690" />
            </Array>
          </mxGeometry>
        </mxCell>
        <mxCell id="L3F5uj6K5Kh_m014AXHH-22" value="Extrusion[0]" style="rounded=0;whiteSpace=wrap;html=1;" vertex="1" parent="1">
          <mxGeometry x="60" y="340" width="120" height="60" as="geometry" />
        </mxCell>
        <mxCell id="L3F5uj6K5Kh_m014AXHH-23" value="" style="endArrow=classic;html=1;rounded=0;exitX=0.25;exitY=1;exitDx=0;exitDy=0;entryX=0.25;entryY=0;entryDx=0;entryDy=0;" edge="1" parent="1" source="YWl4SaaRgPi7A-b4CHQc-1" target="L3F5uj6K5Kh_m014AXHH-11">
          <mxGeometry width="50" height="50" relative="1" as="geometry">
            <mxPoint x="420" y="400" as="sourcePoint" />
            <mxPoint x="470" y="350" as="targetPoint" />
          </mxGeometry>
        </mxCell>
        <mxCell id="L3F5uj6K5Kh_m014AXHH-24" value="" style="endArrow=classic;html=1;rounded=0;exitX=0.75;exitY=1;exitDx=0;exitDy=0;entryX=0.75;entryY=0;entryDx=0;entryDy=0;" edge="1" parent="1" source="YWl4SaaRgPi7A-b4CHQc-1" target="L3F5uj6K5Kh_m014AXHH-11">
          <mxGeometry width="50" height="50" relative="1" as="geometry">
            <mxPoint x="320" y="90" as="sourcePoint" />
            <mxPoint x="342.5" y="190" as="targetPoint" />
          </mxGeometry>
        </mxCell>
        <mxCell id="L3F5uj6K5Kh_m014AXHH-25" value="R(180, 0, 1, 0)" style="edgeLabel;html=1;align=center;verticalAlign=middle;resizable=0;points=[];" vertex="1" connectable="0" parent="L3F5uj6K5Kh_m014AXHH-24">
          <mxGeometry x="0.4469" y="2" relative="1" as="geometry">
            <mxPoint y="-23" as="offset" />
          </mxGeometry>
        </mxCell>
        <mxCell id="L3F5uj6K5Kh_m014AXHH-26" value="largo = 0.75&lt;br&gt;alto = 1 = radio&lt;br&gt;ancho = 2.25&lt;br&gt;LADOS_CIRCULO = 64&lt;br&gt;angulo = 2π/LADOS_CIRCULO" style="shape=note;whiteSpace=wrap;html=1;backgroundOutline=1;darkOpacity=0.05;" vertex="1" parent="1">
          <mxGeometry x="40" y="477.5" width="180" height="100" as="geometry" />
        </mxCell>
        <mxCell id="wLCo1cd0LWxURkyOtaVb-1" value="Extrusion[i]" style="rounded=0;whiteSpace=wrap;html=1;" vertex="1" parent="1">
          <mxGeometry x="250" y="340" width="120" height="60" as="geometry" />
        </mxCell>
        <mxCell id="wLCo1cd0LWxURkyOtaVb-2" value="" style="endArrow=classic;html=1;rounded=0;exitX=0.5;exitY=1;exitDx=0;exitDy=0;entryX=0.5;entryY=0;entryDx=0;entryDy=0;" edge="1" parent="1" source="wLCo1cd0LWxURkyOtaVb-1" target="YWl4SaaRgPi7A-b4CHQc-3">
          <mxGeometry width="50" height="50" relative="1" as="geometry">
            <mxPoint x="320" y="360" as="sourcePoint" />
            <mxPoint x="330" y="440" as="targetPoint" />
          </mxGeometry>
        </mxCell>
        <mxCell id="wLCo1cd0LWxURkyOtaVb-3" value="extrusion(largo, 0, 0)" style="edgeLabel;html=1;align=center;verticalAlign=middle;resizable=0;points=[];" vertex="1" connectable="0" parent="wLCo1cd0LWxURkyOtaVb-2">
          <mxGeometry x="-0.3333" y="-2" relative="1" as="geometry">
            <mxPoint as="offset" />
          </mxGeometry>
        </mxCell>
      </root>
    </mxGraphModel>
  </diagram>
  <diagram id="PKRfgj5FoOeQjT62K-x8" name="Carroceria Lateral">
    <mxGraphModel dx="953" dy="1660" grid="1" gridSize="10" guides="1" tooltips="1" connect="1" arrows="1" fold="1" page="1" pageScale="1" pageWidth="827" pageHeight="1169" math="0" shadow="0">
      <root>
        <mxCell id="0" />
        <mxCell id="1" parent="0" />
        <mxCell id="iICLIXirbe9dpJ8QDpsS-1" value="Pieza 1 -&lt;br&gt;Parte Lateral Superior Delantera Alta" style="rounded=0;whiteSpace=wrap;html=1;" vertex="1" parent="1">
          <mxGeometry x="150" y="579.75" width="120" height="60" as="geometry" />
        </mxCell>
        <mxCell id="iICLIXirbe9dpJ8QDpsS-3" value="Semicilindro" style="rounded=0;whiteSpace=wrap;html=1;" vertex="1" parent="1">
          <mxGeometry x="90" y="739.75" width="120" height="60" as="geometry" />
        </mxCell>
        <mxCell id="iICLIXirbe9dpJ8QDpsS-4" value="" style="endArrow=classic;html=1;rounded=0;exitX=0.5;exitY=1;exitDx=0;exitDy=0;entryX=0.5;entryY=0;entryDx=0;entryDy=0;" edge="1" parent="1" source="iICLIXirbe9dpJ8QDpsS-1" target="iICLIXirbe9dpJ8QDpsS-3">
          <mxGeometry width="50" height="50" relative="1" as="geometry">
            <mxPoint x="270" y="529.75" as="sourcePoint" />
            <mxPoint x="320" y="479.75" as="targetPoint" />
          </mxGeometry>
        </mxCell>
        <mxCell id="iICLIXirbe9dpJ8QDpsS-5" value="S (0.5, 0.75, 3)" style="edgeLabel;html=1;align=center;verticalAlign=middle;resizable=0;points=[];" vertex="1" connectable="0" parent="iICLIXirbe9dpJ8QDpsS-4">
          <mxGeometry x="0.3559" y="-2" relative="1" as="geometry">
            <mxPoint as="offset" />
          </mxGeometry>
        </mxCell>
        <mxCell id="iICLIXirbe9dpJ8QDpsS-6" value="T (0, alto1/2,0)" style="edgeLabel;html=1;align=center;verticalAlign=middle;resizable=0;points=[];" vertex="1" connectable="0" parent="iICLIXirbe9dpJ8QDpsS-4">
          <mxGeometry x="-0.3118" y="-3" relative="1" as="geometry">
            <mxPoint as="offset" />
          </mxGeometry>
        </mxCell>
        <mxCell id="iICLIXirbe9dpJ8QDpsS-7" value="Pieza 1.5 -&lt;br&gt;Parte Lateral Superior Delantera Baja" style="rounded=0;whiteSpace=wrap;html=1;" vertex="1" parent="1">
          <mxGeometry x="300" y="579.75" width="120" height="60" as="geometry" />
        </mxCell>
        <mxCell id="iICLIXirbe9dpJ8QDpsS-8" value="Cubo" style="rounded=0;whiteSpace=wrap;html=1;" vertex="1" parent="1">
          <mxGeometry x="300" y="739.75" width="120" height="60" as="geometry" />
        </mxCell>
        <mxCell id="iICLIXirbe9dpJ8QDpsS-9" value="" style="endArrow=classic;html=1;rounded=0;exitX=0.5;exitY=1;exitDx=0;exitDy=0;entryX=0.5;entryY=0;entryDx=0;entryDy=0;" edge="1" parent="1" source="iICLIXirbe9dpJ8QDpsS-7" target="iICLIXirbe9dpJ8QDpsS-8">
          <mxGeometry width="50" height="50" relative="1" as="geometry">
            <mxPoint x="270" y="559.75" as="sourcePoint" />
            <mxPoint x="320" y="509.75" as="targetPoint" />
          </mxGeometry>
        </mxCell>
        <mxCell id="wFNt9a2i-XBwmgEseBS8-27" value="S (largo1, alto1/2, ancho1)" style="edgeLabel;html=1;align=center;verticalAlign=middle;resizable=0;points=[];" vertex="1" connectable="0" parent="iICLIXirbe9dpJ8QDpsS-9">
          <mxGeometry x="-0.3256" y="2" relative="1" as="geometry">
            <mxPoint as="offset" />
          </mxGeometry>
        </mxCell>
        <mxCell id="iICLIXirbe9dpJ8QDpsS-10" value="Parte Lateral Superior Delantera" style="rounded=0;whiteSpace=wrap;html=1;" vertex="1" parent="1">
          <mxGeometry x="220" y="330" width="120" height="60" as="geometry" />
        </mxCell>
        <mxCell id="iICLIXirbe9dpJ8QDpsS-11" value="" style="endArrow=classic;html=1;rounded=0;exitX=0.5;exitY=1;exitDx=0;exitDy=0;entryX=0.5;entryY=0;entryDx=0;entryDy=0;" edge="1" parent="1" source="iICLIXirbe9dpJ8QDpsS-10" target="iICLIXirbe9dpJ8QDpsS-7">
          <mxGeometry width="50" height="50" relative="1" as="geometry">
            <mxPoint x="270" y="430" as="sourcePoint" />
            <mxPoint x="320" y="380" as="targetPoint" />
          </mxGeometry>
        </mxCell>
        <mxCell id="iICLIXirbe9dpJ8QDpsS-14" value="" style="endArrow=classic;html=1;rounded=0;exitX=0.5;exitY=1;exitDx=0;exitDy=0;entryX=0.5;entryY=0;entryDx=0;entryDy=0;" edge="1" parent="1" source="iICLIXirbe9dpJ8QDpsS-10" target="iICLIXirbe9dpJ8QDpsS-1">
          <mxGeometry width="50" height="50" relative="1" as="geometry">
            <mxPoint x="270" y="420" as="sourcePoint" />
            <mxPoint x="320" y="370" as="targetPoint" />
          </mxGeometry>
        </mxCell>
        <mxCell id="iICLIXirbe9dpJ8QDpsS-15" value="" style="endArrow=classic;html=1;rounded=0;entryX=0.5;entryY=0;entryDx=0;entryDy=0;exitX=0.5;exitY=1;exitDx=0;exitDy=0;" edge="1" parent="1" source="iICLIXirbe9dpJ8QDpsS-17" target="iICLIXirbe9dpJ8QDpsS-10">
          <mxGeometry width="50" height="50" relative="1" as="geometry">
            <mxPoint x="370" y="300" as="sourcePoint" />
            <mxPoint x="320" y="370" as="targetPoint" />
          </mxGeometry>
        </mxCell>
        <mxCell id="iICLIXirbe9dpJ8QDpsS-16" value="T (0, 1, ancho1/2)" style="edgeLabel;html=1;align=center;verticalAlign=middle;resizable=0;points=[];" vertex="1" connectable="0" parent="iICLIXirbe9dpJ8QDpsS-15">
          <mxGeometry x="0.452" y="-2" relative="1" as="geometry">
            <mxPoint x="37" y="-12" as="offset" />
          </mxGeometry>
        </mxCell>
        <mxCell id="iICLIXirbe9dpJ8QDpsS-17" value="Parte Lateral Delantera" style="rounded=0;whiteSpace=wrap;html=1;" vertex="1" parent="1">
          <mxGeometry x="490" y="220" width="120" height="60" as="geometry" />
        </mxCell>
        <mxCell id="iICLIXirbe9dpJ8QDpsS-18" value="Parte Lateral Inferior Delantera" style="rounded=0;whiteSpace=wrap;html=1;" vertex="1" parent="1">
          <mxGeometry x="760" y="330" width="120" height="60" as="geometry" />
        </mxCell>
        <mxCell id="iICLIXirbe9dpJ8QDpsS-20" value="" style="endArrow=classic;html=1;rounded=0;entryX=0.667;entryY=-0.017;entryDx=0;entryDy=0;entryPerimeter=0;exitX=0.5;exitY=1;exitDx=0;exitDy=0;" edge="1" parent="1" source="iICLIXirbe9dpJ8QDpsS-21" target="iICLIXirbe9dpJ8QDpsS-8">
          <mxGeometry width="50" height="50" relative="1" as="geometry">
            <mxPoint x="500" y="649.75" as="sourcePoint" />
            <mxPoint x="470" y="469.75" as="targetPoint" />
          </mxGeometry>
        </mxCell>
        <mxCell id="iICLIXirbe9dpJ8QDpsS-22" value="S (0.5, 1, 0.25)" style="edgeLabel;html=1;align=center;verticalAlign=middle;resizable=0;points=[];" vertex="1" connectable="0" parent="iICLIXirbe9dpJ8QDpsS-20">
          <mxGeometry x="-0.3395" relative="1" as="geometry">
            <mxPoint x="-13" y="17" as="offset" />
          </mxGeometry>
        </mxCell>
        <mxCell id="iICLIXirbe9dpJ8QDpsS-21" value="Pieza 2 - Parte anterior al guardabarros" style="rounded=0;whiteSpace=wrap;html=1;" vertex="1" parent="1">
          <mxGeometry x="460" y="579.75" width="120" height="60" as="geometry" />
        </mxCell>
        <mxCell id="iICLIXirbe9dpJ8QDpsS-23" value="" style="endArrow=classic;html=1;rounded=0;entryX=0.5;entryY=0;entryDx=0;entryDy=0;exitX=0.5;exitY=1;exitDx=0;exitDy=0;" edge="1" parent="1" source="iICLIXirbe9dpJ8QDpsS-18" target="iICLIXirbe9dpJ8QDpsS-21">
          <mxGeometry width="50" height="50" relative="1" as="geometry">
            <mxPoint x="580" y="480" as="sourcePoint" />
            <mxPoint x="470" y="350" as="targetPoint" />
          </mxGeometry>
        </mxCell>
        <mxCell id="iICLIXirbe9dpJ8QDpsS-33" value="T (0, 0, ancho1-ancho2/2)" style="edgeLabel;html=1;align=center;verticalAlign=middle;resizable=0;points=[];" vertex="1" connectable="0" parent="iICLIXirbe9dpJ8QDpsS-23">
          <mxGeometry x="0.5972" y="3" relative="1" as="geometry">
            <mxPoint x="-4" y="-20" as="offset" />
          </mxGeometry>
        </mxCell>
        <mxCell id="iICLIXirbe9dpJ8QDpsS-25" value="" style="endArrow=classic;html=1;rounded=0;exitX=0.5;exitY=1;exitDx=0;exitDy=0;entryX=0.5;entryY=0;entryDx=0;entryDy=0;" edge="1" parent="1" source="iICLIXirbe9dpJ8QDpsS-17" target="iICLIXirbe9dpJ8QDpsS-18">
          <mxGeometry width="50" height="50" relative="1" as="geometry">
            <mxPoint x="420" y="400" as="sourcePoint" />
            <mxPoint x="470" y="350" as="targetPoint" />
          </mxGeometry>
        </mxCell>
        <mxCell id="iICLIXirbe9dpJ8QDpsS-27" value="Pieza 3 - Guardabarros delantero" style="rounded=0;whiteSpace=wrap;html=1;" vertex="1" parent="1">
          <mxGeometry x="600" y="579.75" width="120" height="60" as="geometry" />
        </mxCell>
        <mxCell id="iICLIXirbe9dpJ8QDpsS-28" value="" style="endArrow=classic;html=1;rounded=0;exitX=0.5;exitY=1;exitDx=0;exitDy=0;" edge="1" parent="1" source="iICLIXirbe9dpJ8QDpsS-18" target="iICLIXirbe9dpJ8QDpsS-55">
          <mxGeometry width="50" height="50" relative="1" as="geometry">
            <mxPoint x="660" y="430" as="sourcePoint" />
            <mxPoint x="770" y="440" as="targetPoint" />
          </mxGeometry>
        </mxCell>
        <mxCell id="iICLIXirbe9dpJ8QDpsS-34" value="T (0, 0, ancho1-ancho2-ancho3/2)" style="edgeLabel;html=1;align=center;verticalAlign=middle;resizable=0;points=[];" vertex="1" connectable="0" parent="iICLIXirbe9dpJ8QDpsS-28">
          <mxGeometry x="0.4337" y="3" relative="1" as="geometry">
            <mxPoint x="-16" y="1" as="offset" />
          </mxGeometry>
        </mxCell>
        <mxCell id="iICLIXirbe9dpJ8QDpsS-29" value="Guardabarros" style="rounded=0;whiteSpace=wrap;html=1;" vertex="1" parent="1">
          <mxGeometry x="600" y="739.75" width="120" height="60" as="geometry" />
        </mxCell>
        <mxCell id="iICLIXirbe9dpJ8QDpsS-30" value="" style="endArrow=classic;html=1;rounded=0;exitX=0.5;exitY=1;exitDx=0;exitDy=0;entryX=0.5;entryY=0;entryDx=0;entryDy=0;" edge="1" parent="1" source="iICLIXirbe9dpJ8QDpsS-27" target="iICLIXirbe9dpJ8QDpsS-29">
          <mxGeometry width="50" height="50" relative="1" as="geometry">
            <mxPoint x="540" y="509.75" as="sourcePoint" />
            <mxPoint x="590" y="459.75" as="targetPoint" />
          </mxGeometry>
        </mxCell>
        <mxCell id="iICLIXirbe9dpJ8QDpsS-31" value="T((largo1/2-largo3/2)*(1-2*coef), 0, 0)" style="edgeLabel;html=1;align=center;verticalAlign=middle;resizable=0;points=[];" vertex="1" connectable="0" parent="iICLIXirbe9dpJ8QDpsS-30">
          <mxGeometry x="-0.62" y="-4" relative="1" as="geometry">
            <mxPoint x="4" y="21" as="offset" />
          </mxGeometry>
        </mxCell>
        <mxCell id="iICLIXirbe9dpJ8QDpsS-37" value="" style="endArrow=classic;html=1;rounded=0;exitX=0.5;exitY=1;exitDx=0;exitDy=0;entryX=0.5;entryY=0;entryDx=0;entryDy=0;" edge="1" parent="1" source="iICLIXirbe9dpJ8QDpsS-55" target="iICLIXirbe9dpJ8QDpsS-27">
          <mxGeometry width="50" height="50" relative="1" as="geometry">
            <mxPoint x="799.3933982822018" y="525.6066017177982" as="sourcePoint" />
            <mxPoint x="520" y="630" as="targetPoint" />
          </mxGeometry>
        </mxCell>
        <mxCell id="iICLIXirbe9dpJ8QDpsS-38" value="Pieza 4 - Parte trasera a la rueda" style="rounded=0;whiteSpace=wrap;html=1;" vertex="1" parent="1">
          <mxGeometry x="760" y="579.75" width="120" height="60" as="geometry" />
        </mxCell>
        <mxCell id="iICLIXirbe9dpJ8QDpsS-41" value="Cubo" style="rounded=0;whiteSpace=wrap;html=1;" vertex="1" parent="1">
          <mxGeometry x="760" y="739.75" width="120" height="60" as="geometry" />
        </mxCell>
        <mxCell id="iICLIXirbe9dpJ8QDpsS-42" value="" style="endArrow=classic;html=1;rounded=0;exitX=0.5;exitY=1;exitDx=0;exitDy=0;entryX=0.5;entryY=0;entryDx=0;entryDy=0;" edge="1" parent="1" source="iICLIXirbe9dpJ8QDpsS-38" target="iICLIXirbe9dpJ8QDpsS-41">
          <mxGeometry width="50" height="50" relative="1" as="geometry">
            <mxPoint x="860" y="690" as="sourcePoint" />
            <mxPoint x="910" y="640" as="targetPoint" />
          </mxGeometry>
        </mxCell>
        <mxCell id="iICLIXirbe9dpJ8QDpsS-43" value="S (0.25, 1, 2.25)" style="edgeLabel;html=1;align=center;verticalAlign=middle;resizable=0;points=[];" vertex="1" connectable="0" parent="iICLIXirbe9dpJ8QDpsS-42">
          <mxGeometry x="-0.6361" relative="1" as="geometry">
            <mxPoint y="42" as="offset" />
          </mxGeometry>
        </mxCell>
        <mxCell id="iICLIXirbe9dpJ8QDpsS-45" value="T((largo4/2-largo3)*(1-2*coef), 0, 0)" style="edgeLabel;html=1;align=center;verticalAlign=middle;resizable=0;points=[];" vertex="1" connectable="0" parent="iICLIXirbe9dpJ8QDpsS-42">
          <mxGeometry x="-0.6571" y="-2" relative="1" as="geometry">
            <mxPoint x="12" as="offset" />
          </mxGeometry>
        </mxCell>
        <mxCell id="iICLIXirbe9dpJ8QDpsS-46" value="" style="endArrow=classic;html=1;rounded=0;exitX=0.5;exitY=1;exitDx=0;exitDy=0;entryX=0.5;entryY=0;entryDx=0;entryDy=0;" edge="1" parent="1" source="iICLIXirbe9dpJ8QDpsS-55" target="iICLIXirbe9dpJ8QDpsS-38">
          <mxGeometry width="50" height="50" relative="1" as="geometry">
            <mxPoint x="810" y="530.0000000000002" as="sourcePoint" />
            <mxPoint x="850" y="640" as="targetPoint" />
          </mxGeometry>
        </mxCell>
        <mxCell id="iICLIXirbe9dpJ8QDpsS-47" value="Cilindro" style="rounded=0;whiteSpace=wrap;html=1;" vertex="1" parent="1">
          <mxGeometry x="940" y="739.75" width="120" height="60" as="geometry" />
        </mxCell>
        <mxCell id="iICLIXirbe9dpJ8QDpsS-48" value="Eje de rueda delantera" style="rounded=0;whiteSpace=wrap;html=1;" vertex="1" parent="1">
          <mxGeometry x="940" y="579.75" width="120" height="60" as="geometry" />
        </mxCell>
        <mxCell id="iICLIXirbe9dpJ8QDpsS-49" value="" style="endArrow=classic;html=1;rounded=0;exitX=0.5;exitY=1;exitDx=0;exitDy=0;" edge="1" parent="1" source="iICLIXirbe9dpJ8QDpsS-48" target="iICLIXirbe9dpJ8QDpsS-47">
          <mxGeometry width="50" height="50" relative="1" as="geometry">
            <mxPoint x="740" y="680" as="sourcePoint" />
            <mxPoint x="790" y="630" as="targetPoint" />
          </mxGeometry>
        </mxCell>
        <mxCell id="iICLIXirbe9dpJ8QDpsS-50" value="R (90, 0, 0, 1)" style="edgeLabel;html=1;align=center;verticalAlign=middle;resizable=0;points=[];" vertex="1" connectable="0" parent="iICLIXirbe9dpJ8QDpsS-49">
          <mxGeometry x="0.3113" y="1" relative="1" as="geometry">
            <mxPoint as="offset" />
          </mxGeometry>
        </mxCell>
        <mxCell id="iICLIXirbe9dpJ8QDpsS-51" value="S (0.25, 0.25, 0.25)" style="edgeLabel;html=1;align=center;verticalAlign=middle;resizable=0;points=[];" vertex="1" connectable="0" parent="iICLIXirbe9dpJ8QDpsS-49">
          <mxGeometry x="-0.4045" y="3" relative="1" as="geometry">
            <mxPoint x="-3" y="11" as="offset" />
          </mxGeometry>
        </mxCell>
        <mxCell id="iICLIXirbe9dpJ8QDpsS-52" value="T ((largo1-largo3)*(1-3*coef), 0, 0)" style="edgeLabel;html=1;align=center;verticalAlign=middle;resizable=0;points=[];" vertex="1" connectable="0" parent="iICLIXirbe9dpJ8QDpsS-49">
          <mxGeometry x="-0.5939" relative="1" as="geometry">
            <mxPoint y="-10" as="offset" />
          </mxGeometry>
        </mxCell>
        <mxCell id="iICLIXirbe9dpJ8QDpsS-54" value="" style="endArrow=classic;html=1;rounded=0;exitX=0.5;exitY=1;exitDx=0;exitDy=0;entryX=0.5;entryY=0;entryDx=0;entryDy=0;" edge="1" parent="1" source="iICLIXirbe9dpJ8QDpsS-55" target="iICLIXirbe9dpJ8QDpsS-48">
          <mxGeometry width="50" height="50" relative="1" as="geometry">
            <mxPoint x="820.6066017177982" y="525.6066017177984" as="sourcePoint" />
            <mxPoint x="800" y="630" as="targetPoint" />
          </mxGeometry>
        </mxCell>
        <mxCell id="iICLIXirbe9dpJ8QDpsS-55" value="Guardabarros delantero completo" style="rounded=0;whiteSpace=wrap;html=1;" vertex="1" parent="1">
          <mxGeometry x="760" y="490" width="120" height="60" as="geometry" />
        </mxCell>
        <mxCell id="iICLIXirbe9dpJ8QDpsS-56" value="Pieza 5 - Parte posterior al guardabarros" style="rounded=0;whiteSpace=wrap;html=1;" vertex="1" parent="1">
          <mxGeometry x="1121" y="579.75" width="120" height="60" as="geometry" />
        </mxCell>
        <mxCell id="iICLIXirbe9dpJ8QDpsS-57" value="" style="endArrow=classic;html=1;rounded=0;entryX=0.5;entryY=0;entryDx=0;entryDy=0;exitX=0.5;exitY=1;exitDx=0;exitDy=0;" edge="1" parent="1" source="iICLIXirbe9dpJ8QDpsS-18" target="iICLIXirbe9dpJ8QDpsS-56">
          <mxGeometry width="50" height="50" relative="1" as="geometry">
            <mxPoint x="910" y="430" as="sourcePoint" />
            <mxPoint x="1060" y="620" as="targetPoint" />
          </mxGeometry>
        </mxCell>
        <mxCell id="iICLIXirbe9dpJ8QDpsS-61" value="T (0, 0, ancho5/2)" style="edgeLabel;html=1;align=center;verticalAlign=middle;resizable=0;points=[];" vertex="1" connectable="0" parent="iICLIXirbe9dpJ8QDpsS-57">
          <mxGeometry x="0.2294" y="-3" relative="1" as="geometry">
            <mxPoint y="-1" as="offset" />
          </mxGeometry>
        </mxCell>
        <mxCell id="iICLIXirbe9dpJ8QDpsS-58" value="Cubo" style="rounded=0;whiteSpace=wrap;html=1;" vertex="1" parent="1">
          <mxGeometry x="1310" y="739.75" width="120" height="60" as="geometry" />
        </mxCell>
        <mxCell id="iICLIXirbe9dpJ8QDpsS-59" value="" style="endArrow=classic;html=1;rounded=0;exitX=0.5;exitY=1;exitDx=0;exitDy=0;entryX=0.25;entryY=0;entryDx=0;entryDy=0;" edge="1" parent="1" source="iICLIXirbe9dpJ8QDpsS-56" target="iICLIXirbe9dpJ8QDpsS-58">
          <mxGeometry width="50" height="50" relative="1" as="geometry">
            <mxPoint x="1010" y="670" as="sourcePoint" />
            <mxPoint x="1060" y="620" as="targetPoint" />
          </mxGeometry>
        </mxCell>
        <mxCell id="iICLIXirbe9dpJ8QDpsS-60" value="S (0.5, 1, 0.5)" style="edgeLabel;html=1;align=center;verticalAlign=middle;resizable=0;points=[];" vertex="1" connectable="0" parent="iICLIXirbe9dpJ8QDpsS-59">
          <mxGeometry x="0.2058" y="2" relative="1" as="geometry">
            <mxPoint x="-19" y="-12" as="offset" />
          </mxGeometry>
        </mxCell>
        <mxCell id="iICLIXirbe9dpJ8QDpsS-62" value="" style="endArrow=classic;html=1;rounded=0;entryX=1;entryY=0.5;entryDx=0;entryDy=0;exitX=0;exitY=0.5;exitDx=0;exitDy=0;" edge="1" parent="1" source="iICLIXirbe9dpJ8QDpsS-69" target="iICLIXirbe9dpJ8QDpsS-17">
          <mxGeometry width="50" height="50" relative="1" as="geometry">
            <mxPoint x="980" y="180" as="sourcePoint" />
            <mxPoint x="780" y="380" as="targetPoint" />
          </mxGeometry>
        </mxCell>
        <mxCell id="iICLIXirbe9dpJ8QDpsS-63" value="T(0,0, ancho6)" style="edgeLabel;html=1;align=center;verticalAlign=middle;resizable=0;points=[];" vertex="1" connectable="0" parent="iICLIXirbe9dpJ8QDpsS-62">
          <mxGeometry x="0.231" y="1" relative="1" as="geometry">
            <mxPoint x="40" y="-1" as="offset" />
          </mxGeometry>
        </mxCell>
        <mxCell id="iICLIXirbe9dpJ8QDpsS-65" value="Pieza 6 - Parte inferior puerta lateral" style="rounded=0;whiteSpace=wrap;html=1;" vertex="1" parent="1">
          <mxGeometry x="1310" y="579.75" width="120" height="60" as="geometry" />
        </mxCell>
        <mxCell id="iICLIXirbe9dpJ8QDpsS-66" value="" style="endArrow=classic;html=1;rounded=0;exitX=0.5;exitY=1;exitDx=0;exitDy=0;entryX=0.5;entryY=0;entryDx=0;entryDy=0;" edge="1" parent="1" source="iICLIXirbe9dpJ8QDpsS-65" target="iICLIXirbe9dpJ8QDpsS-58">
          <mxGeometry width="50" height="50" relative="1" as="geometry">
            <mxPoint x="1220" y="430" as="sourcePoint" />
            <mxPoint x="1270" y="380" as="targetPoint" />
          </mxGeometry>
        </mxCell>
        <mxCell id="iICLIXirbe9dpJ8QDpsS-67" value="S(0.25, 0.25, 2.25)" style="edgeLabel;html=1;align=center;verticalAlign=middle;resizable=0;points=[];" vertex="1" connectable="0" parent="iICLIXirbe9dpJ8QDpsS-66">
          <mxGeometry x="0.2932" y="4" relative="1" as="geometry">
            <mxPoint x="-4" y="-18" as="offset" />
          </mxGeometry>
        </mxCell>
        <mxCell id="iICLIXirbe9dpJ8QDpsS-71" value="T(largo6/2*(1-2*coef), 0, 0)" style="edgeLabel;html=1;align=center;verticalAlign=middle;resizable=0;points=[];" vertex="1" connectable="0" parent="iICLIXirbe9dpJ8QDpsS-66">
          <mxGeometry x="-0.5675" y="-2" relative="1" as="geometry">
            <mxPoint x="6" as="offset" />
          </mxGeometry>
        </mxCell>
        <mxCell id="iICLIXirbe9dpJ8QDpsS-69" value="Parte Lateral Delantera + 6" style="rounded=0;whiteSpace=wrap;html=1;" vertex="1" parent="1">
          <mxGeometry x="1050" y="220" width="120" height="60" as="geometry" />
        </mxCell>
        <mxCell id="iICLIXirbe9dpJ8QDpsS-70" value="" style="endArrow=classic;html=1;rounded=0;exitX=0.5;exitY=1;exitDx=0;exitDy=0;entryX=0.5;entryY=0;entryDx=0;entryDy=0;" edge="1" parent="1" source="iICLIXirbe9dpJ8QDpsS-69" target="iICLIXirbe9dpJ8QDpsS-65">
          <mxGeometry width="50" height="50" relative="1" as="geometry">
            <mxPoint x="1210" y="390" as="sourcePoint" />
            <mxPoint x="1260" y="340" as="targetPoint" />
          </mxGeometry>
        </mxCell>
        <mxCell id="iICLIXirbe9dpJ8QDpsS-72" value="T(0,0,ancho6/2)" style="edgeLabel;html=1;align=center;verticalAlign=middle;resizable=0;points=[];" vertex="1" connectable="0" parent="iICLIXirbe9dpJ8QDpsS-70">
          <mxGeometry x="0.6133" y="-1" relative="1" as="geometry">
            <mxPoint y="1" as="offset" />
          </mxGeometry>
        </mxCell>
        <mxCell id="iICLIXirbe9dpJ8QDpsS-74" value="Pieza 8 - Guardabarros trasero" style="rounded=0;whiteSpace=wrap;html=1;" vertex="1" parent="1">
          <mxGeometry x="1654" y="579.75" width="120" height="60" as="geometry" />
        </mxCell>
        <mxCell id="iICLIXirbe9dpJ8QDpsS-75" value="Guardabarros" style="rounded=0;whiteSpace=wrap;html=1;" vertex="1" parent="1">
          <mxGeometry x="1654" y="739.75" width="120" height="60" as="geometry" />
        </mxCell>
        <mxCell id="iICLIXirbe9dpJ8QDpsS-76" value="" style="endArrow=classic;html=1;rounded=0;exitX=0.5;exitY=1;exitDx=0;exitDy=0;entryX=0.5;entryY=0;entryDx=0;entryDy=0;" edge="1" parent="1" source="iICLIXirbe9dpJ8QDpsS-74" target="iICLIXirbe9dpJ8QDpsS-75">
          <mxGeometry width="50" height="50" relative="1" as="geometry">
            <mxPoint x="1594" y="509.75" as="sourcePoint" />
            <mxPoint x="1644" y="459.75" as="targetPoint" />
          </mxGeometry>
        </mxCell>
        <mxCell id="iICLIXirbe9dpJ8QDpsS-77" value="T((largo1/2-largo3/2)*(1-2*coef), 0, 0)" style="edgeLabel;html=1;align=center;verticalAlign=middle;resizable=0;points=[];" vertex="1" connectable="0" parent="iICLIXirbe9dpJ8QDpsS-76">
          <mxGeometry x="-0.62" y="-4" relative="1" as="geometry">
            <mxPoint x="4" y="21" as="offset" />
          </mxGeometry>
        </mxCell>
        <mxCell id="iICLIXirbe9dpJ8QDpsS-78" value="" style="endArrow=classic;html=1;rounded=0;exitX=0.5;exitY=1;exitDx=0;exitDy=0;entryX=0.5;entryY=0;entryDx=0;entryDy=0;" edge="1" parent="1" source="iICLIXirbe9dpJ8QDpsS-92" target="iICLIXirbe9dpJ8QDpsS-74">
          <mxGeometry width="50" height="50" relative="1" as="geometry">
            <mxPoint x="1853.3933982822018" y="525.6066017177982" as="sourcePoint" />
            <mxPoint x="1574" y="630" as="targetPoint" />
          </mxGeometry>
        </mxCell>
        <mxCell id="iICLIXirbe9dpJ8QDpsS-79" value="Pieza 9 - Parte trasera a la rueda" style="rounded=0;whiteSpace=wrap;html=1;" vertex="1" parent="1">
          <mxGeometry x="1814" y="579.75" width="120" height="60" as="geometry" />
        </mxCell>
        <mxCell id="iICLIXirbe9dpJ8QDpsS-80" value="Cubo" style="rounded=0;whiteSpace=wrap;html=1;" vertex="1" parent="1">
          <mxGeometry x="1814" y="739.75" width="120" height="60" as="geometry" />
        </mxCell>
        <mxCell id="iICLIXirbe9dpJ8QDpsS-81" value="" style="endArrow=classic;html=1;rounded=0;exitX=0.5;exitY=1;exitDx=0;exitDy=0;entryX=0.5;entryY=0;entryDx=0;entryDy=0;" edge="1" parent="1" source="iICLIXirbe9dpJ8QDpsS-79" target="iICLIXirbe9dpJ8QDpsS-80">
          <mxGeometry width="50" height="50" relative="1" as="geometry">
            <mxPoint x="1914" y="690" as="sourcePoint" />
            <mxPoint x="1964" y="640" as="targetPoint" />
          </mxGeometry>
        </mxCell>
        <mxCell id="iICLIXirbe9dpJ8QDpsS-82" value="S (0.25, 1, 2.25)" style="edgeLabel;html=1;align=center;verticalAlign=middle;resizable=0;points=[];" vertex="1" connectable="0" parent="iICLIXirbe9dpJ8QDpsS-81">
          <mxGeometry x="-0.6361" relative="1" as="geometry">
            <mxPoint y="42" as="offset" />
          </mxGeometry>
        </mxCell>
        <mxCell id="iICLIXirbe9dpJ8QDpsS-83" value="T((largo4/2-largo3)*(1-2*coef), 0, 0)" style="edgeLabel;html=1;align=center;verticalAlign=middle;resizable=0;points=[];" vertex="1" connectable="0" parent="iICLIXirbe9dpJ8QDpsS-81">
          <mxGeometry x="-0.6571" y="-2" relative="1" as="geometry">
            <mxPoint x="12" as="offset" />
          </mxGeometry>
        </mxCell>
        <mxCell id="iICLIXirbe9dpJ8QDpsS-84" value="" style="endArrow=classic;html=1;rounded=0;exitX=0.5;exitY=1;exitDx=0;exitDy=0;entryX=0.5;entryY=0;entryDx=0;entryDy=0;" edge="1" parent="1" source="iICLIXirbe9dpJ8QDpsS-92" target="iICLIXirbe9dpJ8QDpsS-79">
          <mxGeometry width="50" height="50" relative="1" as="geometry">
            <mxPoint x="1864" y="530.0000000000002" as="sourcePoint" />
            <mxPoint x="1904" y="640" as="targetPoint" />
          </mxGeometry>
        </mxCell>
        <mxCell id="iICLIXirbe9dpJ8QDpsS-85" value="Cilindro" style="rounded=0;whiteSpace=wrap;html=1;" vertex="1" parent="1">
          <mxGeometry x="1994" y="739.75" width="120" height="60" as="geometry" />
        </mxCell>
        <mxCell id="iICLIXirbe9dpJ8QDpsS-86" value="Eje de rueda trasera" style="rounded=0;whiteSpace=wrap;html=1;" vertex="1" parent="1">
          <mxGeometry x="1994" y="579.75" width="120" height="60" as="geometry" />
        </mxCell>
        <mxCell id="iICLIXirbe9dpJ8QDpsS-87" value="" style="endArrow=classic;html=1;rounded=0;exitX=0.5;exitY=1;exitDx=0;exitDy=0;" edge="1" parent="1" source="iICLIXirbe9dpJ8QDpsS-86" target="iICLIXirbe9dpJ8QDpsS-85">
          <mxGeometry width="50" height="50" relative="1" as="geometry">
            <mxPoint x="1794" y="680" as="sourcePoint" />
            <mxPoint x="1844" y="630" as="targetPoint" />
          </mxGeometry>
        </mxCell>
        <mxCell id="iICLIXirbe9dpJ8QDpsS-88" value="R (90, 0, 0, 1)" style="edgeLabel;html=1;align=center;verticalAlign=middle;resizable=0;points=[];" vertex="1" connectable="0" parent="iICLIXirbe9dpJ8QDpsS-87">
          <mxGeometry x="0.3113" y="1" relative="1" as="geometry">
            <mxPoint as="offset" />
          </mxGeometry>
        </mxCell>
        <mxCell id="iICLIXirbe9dpJ8QDpsS-89" value="S (0.25, 0.25, 0.25)" style="edgeLabel;html=1;align=center;verticalAlign=middle;resizable=0;points=[];" vertex="1" connectable="0" parent="iICLIXirbe9dpJ8QDpsS-87">
          <mxGeometry x="-0.4045" y="3" relative="1" as="geometry">
            <mxPoint x="-3" y="11" as="offset" />
          </mxGeometry>
        </mxCell>
        <mxCell id="iICLIXirbe9dpJ8QDpsS-90" value="T ((largo1-largo3)*(1-3*coef), 0, 0)" style="edgeLabel;html=1;align=center;verticalAlign=middle;resizable=0;points=[];" vertex="1" connectable="0" parent="iICLIXirbe9dpJ8QDpsS-87">
          <mxGeometry x="-0.5939" relative="1" as="geometry">
            <mxPoint x="7" y="-2" as="offset" />
          </mxGeometry>
        </mxCell>
        <mxCell id="iICLIXirbe9dpJ8QDpsS-91" value="" style="endArrow=classic;html=1;rounded=0;exitX=0.5;exitY=1;exitDx=0;exitDy=0;entryX=0.5;entryY=0;entryDx=0;entryDy=0;" edge="1" parent="1" source="iICLIXirbe9dpJ8QDpsS-92" target="iICLIXirbe9dpJ8QDpsS-86">
          <mxGeometry width="50" height="50" relative="1" as="geometry">
            <mxPoint x="1874.6066017177982" y="525.6066017177984" as="sourcePoint" />
            <mxPoint x="1854" y="630" as="targetPoint" />
          </mxGeometry>
        </mxCell>
        <mxCell id="iICLIXirbe9dpJ8QDpsS-92" value="Guardabarros trasero completo" style="rounded=0;whiteSpace=wrap;html=1;" vertex="1" parent="1">
          <mxGeometry x="1814" y="490" width="120" height="60" as="geometry" />
        </mxCell>
        <mxCell id="iICLIXirbe9dpJ8QDpsS-95" value="Pieza 7 - Parte anterior guardabarros trasero" style="rounded=0;whiteSpace=wrap;html=1;" vertex="1" parent="1">
          <mxGeometry x="1470" y="579.75" width="120" height="60" as="geometry" />
        </mxCell>
        <mxCell id="iICLIXirbe9dpJ8QDpsS-96" value="" style="endArrow=classic;html=1;rounded=0;entryX=1;entryY=0.5;entryDx=0;entryDy=0;exitX=0;exitY=0.5;exitDx=0;exitDy=0;" edge="1" parent="1" source="iICLIXirbe9dpJ8QDpsS-97" target="iICLIXirbe9dpJ8QDpsS-69">
          <mxGeometry width="50" height="50" relative="1" as="geometry">
            <mxPoint x="1270" y="40" as="sourcePoint" />
            <mxPoint x="1340" y="320" as="targetPoint" />
          </mxGeometry>
        </mxCell>
        <mxCell id="iICLIXirbe9dpJ8QDpsS-98" value="T (0.0.ancho7)" style="edgeLabel;html=1;align=center;verticalAlign=middle;resizable=0;points=[];" vertex="1" connectable="0" parent="iICLIXirbe9dpJ8QDpsS-96">
          <mxGeometry x="0.1711" y="-2" relative="1" as="geometry">
            <mxPoint as="offset" />
          </mxGeometry>
        </mxCell>
        <mxCell id="iICLIXirbe9dpJ8QDpsS-97" value="Parte Lateral Delantera + Central" style="rounded=0;whiteSpace=wrap;html=1;" vertex="1" parent="1">
          <mxGeometry x="1360" y="220" width="120" height="60" as="geometry" />
        </mxCell>
        <mxCell id="iICLIXirbe9dpJ8QDpsS-99" value="" style="endArrow=classic;html=1;rounded=0;exitX=0.5;exitY=1;exitDx=0;exitDy=0;entryX=0.5;entryY=0;entryDx=0;entryDy=0;" edge="1" parent="1" source="iICLIXirbe9dpJ8QDpsS-97" target="iICLIXirbe9dpJ8QDpsS-95">
          <mxGeometry width="50" height="50" relative="1" as="geometry">
            <mxPoint x="1350" y="370" as="sourcePoint" />
            <mxPoint x="1400" y="320" as="targetPoint" />
          </mxGeometry>
        </mxCell>
        <mxCell id="iICLIXirbe9dpJ8QDpsS-100" value="T(0,0,ancho7/2)" style="edgeLabel;html=1;align=center;verticalAlign=middle;resizable=0;points=[];" vertex="1" connectable="0" parent="iICLIXirbe9dpJ8QDpsS-99">
          <mxGeometry x="0.6745" y="-2" relative="1" as="geometry">
            <mxPoint as="offset" />
          </mxGeometry>
        </mxCell>
        <mxCell id="iICLIXirbe9dpJ8QDpsS-101" value="" style="endArrow=classic;html=1;rounded=0;exitX=0.5;exitY=1;exitDx=0;exitDy=0;entryX=0.75;entryY=0;entryDx=0;entryDy=0;" edge="1" parent="1" source="iICLIXirbe9dpJ8QDpsS-95" target="iICLIXirbe9dpJ8QDpsS-58">
          <mxGeometry width="50" height="50" relative="1" as="geometry">
            <mxPoint x="1350" y="370" as="sourcePoint" />
            <mxPoint x="1400" y="320" as="targetPoint" />
          </mxGeometry>
        </mxCell>
        <mxCell id="iICLIXirbe9dpJ8QDpsS-102" value="S(0.5, 1, 1.25)" style="edgeLabel;html=1;align=center;verticalAlign=middle;resizable=0;points=[];" vertex="1" connectable="0" parent="iICLIXirbe9dpJ8QDpsS-101">
          <mxGeometry x="0.3041" y="2" relative="1" as="geometry">
            <mxPoint x="24" y="-20" as="offset" />
          </mxGeometry>
        </mxCell>
        <mxCell id="iICLIXirbe9dpJ8QDpsS-105" value="Parte Lateral Delantera + Central + Guard. trasero" style="rounded=0;whiteSpace=wrap;html=1;" vertex="1" parent="1">
          <mxGeometry x="1694" y="220" width="120" height="60" as="geometry" />
        </mxCell>
        <mxCell id="iICLIXirbe9dpJ8QDpsS-106" value="" style="endArrow=classic;html=1;rounded=0;exitX=0;exitY=0.5;exitDx=0;exitDy=0;entryX=1;entryY=0.5;entryDx=0;entryDy=0;" edge="1" parent="1" source="iICLIXirbe9dpJ8QDpsS-105" target="iICLIXirbe9dpJ8QDpsS-97">
          <mxGeometry width="50" height="50" relative="1" as="geometry">
            <mxPoint x="1570" y="360" as="sourcePoint" />
            <mxPoint x="1620" y="310" as="targetPoint" />
          </mxGeometry>
        </mxCell>
        <mxCell id="iICLIXirbe9dpJ8QDpsS-107" value="T(0,0,ancho8)" style="edgeLabel;html=1;align=center;verticalAlign=middle;resizable=0;points=[];" vertex="1" connectable="0" parent="iICLIXirbe9dpJ8QDpsS-106">
          <mxGeometry x="0.2456" y="1" relative="1" as="geometry">
            <mxPoint as="offset" />
          </mxGeometry>
        </mxCell>
        <mxCell id="iICLIXirbe9dpJ8QDpsS-108" value="" style="endArrow=classic;html=1;rounded=0;exitX=0.5;exitY=1;exitDx=0;exitDy=0;entryX=0.5;entryY=0;entryDx=0;entryDy=0;" edge="1" parent="1" source="iICLIXirbe9dpJ8QDpsS-105" target="iICLIXirbe9dpJ8QDpsS-92">
          <mxGeometry width="50" height="50" relative="1" as="geometry">
            <mxPoint x="1570" y="360" as="sourcePoint" />
            <mxPoint x="1620" y="310" as="targetPoint" />
          </mxGeometry>
        </mxCell>
        <mxCell id="iICLIXirbe9dpJ8QDpsS-109" value="T(0,0,ancho8/2)" style="edgeLabel;html=1;align=center;verticalAlign=middle;resizable=0;points=[];" vertex="1" connectable="0" parent="iICLIXirbe9dpJ8QDpsS-108">
          <mxGeometry x="0.644" y="1" relative="1" as="geometry">
            <mxPoint as="offset" />
          </mxGeometry>
        </mxCell>
        <mxCell id="iICLIXirbe9dpJ8QDpsS-111" value="Pieza 10 - Parte posterior guardabarros trasero" style="rounded=0;whiteSpace=wrap;html=1;" vertex="1" parent="1">
          <mxGeometry x="2200" y="579.75" width="120" height="60" as="geometry" />
        </mxCell>
        <mxCell id="iICLIXirbe9dpJ8QDpsS-112" value="Poligono" style="rounded=0;whiteSpace=wrap;html=1;" vertex="1" parent="1">
          <mxGeometry x="2200" y="739.75" width="120" height="60" as="geometry" />
        </mxCell>
        <mxCell id="wFNt9a2i-XBwmgEseBS8-1" value="" style="endArrow=classic;html=1;rounded=0;exitX=0.5;exitY=1;exitDx=0;exitDy=0;entryX=0.5;entryY=0;entryDx=0;entryDy=0;" edge="1" parent="1" source="iICLIXirbe9dpJ8QDpsS-111" target="iICLIXirbe9dpJ8QDpsS-112">
          <mxGeometry width="50" height="50" relative="1" as="geometry">
            <mxPoint x="2030" y="550" as="sourcePoint" />
            <mxPoint x="2080" y="500" as="targetPoint" />
          </mxGeometry>
        </mxCell>
        <mxCell id="wFNt9a2i-XBwmgEseBS8-3" value="Carroceria Lateral sin Parte Final" style="rounded=0;whiteSpace=wrap;html=1;" vertex="1" parent="1">
          <mxGeometry x="2020" y="220" width="120" height="60" as="geometry" />
        </mxCell>
        <mxCell id="wFNt9a2i-XBwmgEseBS8-4" value="" style="endArrow=classic;html=1;rounded=0;exitX=0.5;exitY=1;exitDx=0;exitDy=0;entryX=0.5;entryY=0;entryDx=0;entryDy=0;" edge="1" parent="1" source="wFNt9a2i-XBwmgEseBS8-3" target="iICLIXirbe9dpJ8QDpsS-111">
          <mxGeometry width="50" height="50" relative="1" as="geometry">
            <mxPoint x="2090" y="320" as="sourcePoint" />
            <mxPoint x="2140" y="270" as="targetPoint" />
          </mxGeometry>
        </mxCell>
        <mxCell id="wFNt9a2i-XBwmgEseBS8-5" value="" style="endArrow=classic;html=1;rounded=0;exitX=0;exitY=0.5;exitDx=0;exitDy=0;entryX=1;entryY=0.5;entryDx=0;entryDy=0;" edge="1" parent="1" source="wFNt9a2i-XBwmgEseBS8-3" target="iICLIXirbe9dpJ8QDpsS-105">
          <mxGeometry width="50" height="50" relative="1" as="geometry">
            <mxPoint x="1870" y="320" as="sourcePoint" />
            <mxPoint x="1920" y="270" as="targetPoint" />
          </mxGeometry>
        </mxCell>
        <mxCell id="wFNt9a2i-XBwmgEseBS8-7" value="Carrocería Lateral" style="rounded=0;whiteSpace=wrap;html=1;" vertex="1" parent="1">
          <mxGeometry x="2310" y="220" width="120" height="60" as="geometry" />
        </mxCell>
        <mxCell id="wFNt9a2i-XBwmgEseBS8-8" value="" style="endArrow=classic;html=1;rounded=0;exitX=0;exitY=0.5;exitDx=0;exitDy=0;entryX=1;entryY=0.5;entryDx=0;entryDy=0;" edge="1" parent="1" source="wFNt9a2i-XBwmgEseBS8-7" target="wFNt9a2i-XBwmgEseBS8-3">
          <mxGeometry width="50" height="50" relative="1" as="geometry">
            <mxPoint x="2190" y="280" as="sourcePoint" />
            <mxPoint x="2240" y="230" as="targetPoint" />
          </mxGeometry>
        </mxCell>
        <mxCell id="wFNt9a2i-XBwmgEseBS8-9" value="T (0, 0, ancho10+ancho11)" style="edgeLabel;html=1;align=center;verticalAlign=middle;resizable=0;points=[];" vertex="1" connectable="0" parent="wFNt9a2i-XBwmgEseBS8-8">
          <mxGeometry x="0.344" y="2" relative="1" as="geometry">
            <mxPoint x="34" y="-2" as="offset" />
          </mxGeometry>
        </mxCell>
        <mxCell id="wFNt9a2i-XBwmgEseBS8-10" value="Parte 11 - Parte lateral final inferior" style="rounded=0;whiteSpace=wrap;html=1;" vertex="1" parent="1">
          <mxGeometry x="2410" y="579.75" width="120" height="60" as="geometry" />
        </mxCell>
        <mxCell id="wFNt9a2i-XBwmgEseBS8-11" value="Cubo" style="rounded=0;whiteSpace=wrap;html=1;" vertex="1" parent="1">
          <mxGeometry x="2410" y="739.75" width="120" height="60" as="geometry" />
        </mxCell>
        <mxCell id="wFNt9a2i-XBwmgEseBS8-12" value="" style="endArrow=classic;html=1;rounded=0;exitX=0.5;exitY=1;exitDx=0;exitDy=0;entryX=0.5;entryY=0;entryDx=0;entryDy=0;" edge="1" parent="1" source="wFNt9a2i-XBwmgEseBS8-10" target="wFNt9a2i-XBwmgEseBS8-11">
          <mxGeometry width="50" height="50" relative="1" as="geometry">
            <mxPoint x="2280" y="430" as="sourcePoint" />
            <mxPoint x="2330" y="380" as="targetPoint" />
          </mxGeometry>
        </mxCell>
        <mxCell id="wFNt9a2i-XBwmgEseBS8-13" value="S(0.5, 0.9, 0.75)" style="edgeLabel;html=1;align=center;verticalAlign=middle;resizable=0;points=[];" vertex="1" connectable="0" parent="wFNt9a2i-XBwmgEseBS8-12">
          <mxGeometry x="-0.6079" relative="1" as="geometry">
            <mxPoint y="40" as="offset" />
          </mxGeometry>
        </mxCell>
        <mxCell id="wFNt9a2i-XBwmgEseBS8-14" value="" style="endArrow=classic;html=1;rounded=0;entryX=0.5;entryY=0;entryDx=0;entryDy=0;exitX=0.5;exitY=1;exitDx=0;exitDy=0;" edge="1" parent="1" source="wFNt9a2i-XBwmgEseBS8-32" target="wFNt9a2i-XBwmgEseBS8-10">
          <mxGeometry width="50" height="50" relative="1" as="geometry">
            <mxPoint x="2550" y="310" as="sourcePoint" />
            <mxPoint x="2330" y="380" as="targetPoint" />
          </mxGeometry>
        </mxCell>
        <mxCell id="wFNt9a2i-XBwmgEseBS8-15" value="T (0, 0.1, ancho11/2)" style="edgeLabel;html=1;align=center;verticalAlign=middle;resizable=0;points=[];" vertex="1" connectable="0" parent="wFNt9a2i-XBwmgEseBS8-14">
          <mxGeometry x="0.441" y="2" relative="1" as="geometry">
            <mxPoint x="3" y="-21" as="offset" />
          </mxGeometry>
        </mxCell>
        <mxCell id="wFNt9a2i-XBwmgEseBS8-16" value="Pieza 12 -&lt;br&gt;Parte Lateral Final Superior Alta" style="rounded=0;whiteSpace=wrap;html=1;" vertex="1" parent="1">
          <mxGeometry x="2600" y="579.75" width="120" height="60" as="geometry" />
        </mxCell>
        <mxCell id="wFNt9a2i-XBwmgEseBS8-17" value="Semicilindro" style="rounded=0;whiteSpace=wrap;html=1;" vertex="1" parent="1">
          <mxGeometry x="2600" y="739.75" width="120" height="60" as="geometry" />
        </mxCell>
        <mxCell id="wFNt9a2i-XBwmgEseBS8-18" value="" style="endArrow=classic;html=1;rounded=0;exitX=0.5;exitY=1;exitDx=0;exitDy=0;entryX=0.5;entryY=0;entryDx=0;entryDy=0;" edge="1" parent="1" source="wFNt9a2i-XBwmgEseBS8-16" target="wFNt9a2i-XBwmgEseBS8-17">
          <mxGeometry width="50" height="50" relative="1" as="geometry">
            <mxPoint x="2720" y="529.75" as="sourcePoint" />
            <mxPoint x="2770" y="479.75" as="targetPoint" />
          </mxGeometry>
        </mxCell>
        <mxCell id="wFNt9a2i-XBwmgEseBS8-19" value="S (0.5, 0.75, 5)" style="edgeLabel;html=1;align=center;verticalAlign=middle;resizable=0;points=[];" vertex="1" connectable="0" parent="wFNt9a2i-XBwmgEseBS8-18">
          <mxGeometry x="0.3559" y="-2" relative="1" as="geometry">
            <mxPoint y="-8" as="offset" />
          </mxGeometry>
        </mxCell>
        <mxCell id="wFNt9a2i-XBwmgEseBS8-22" value="Cubo" style="rounded=0;whiteSpace=wrap;html=1;" vertex="1" parent="1">
          <mxGeometry x="2750" y="739.75" width="120" height="60" as="geometry" />
        </mxCell>
        <mxCell id="wFNt9a2i-XBwmgEseBS8-24" value="Pieza 12 -&lt;br&gt;Parte Lateral Final Superior Alta" style="rounded=0;whiteSpace=wrap;html=1;" vertex="1" parent="1">
          <mxGeometry x="2750" y="579.75" width="120" height="60" as="geometry" />
        </mxCell>
        <mxCell id="wFNt9a2i-XBwmgEseBS8-26" value="" style="endArrow=classic;html=1;rounded=0;exitX=0.5;exitY=1;exitDx=0;exitDy=0;entryX=0.5;entryY=0;entryDx=0;entryDy=0;" edge="1" parent="1" source="wFNt9a2i-XBwmgEseBS8-24" target="wFNt9a2i-XBwmgEseBS8-22">
          <mxGeometry width="50" height="50" relative="1" as="geometry">
            <mxPoint x="2600" y="430" as="sourcePoint" />
            <mxPoint x="2650" y="380" as="targetPoint" />
          </mxGeometry>
        </mxCell>
        <mxCell id="wFNt9a2i-XBwmgEseBS8-28" value="S (largo12, alto12/2, ancho12)" style="edgeLabel;html=1;align=center;verticalAlign=middle;resizable=0;points=[];" vertex="1" connectable="0" parent="wFNt9a2i-XBwmgEseBS8-26">
          <mxGeometry x="0.5215" y="1" relative="1" as="geometry">
            <mxPoint x="-1" y="-26" as="offset" />
          </mxGeometry>
        </mxCell>
        <mxCell id="wFNt9a2i-XBwmgEseBS8-29" value="Parte Lateral Final Superior" style="rounded=0;whiteSpace=wrap;html=1;" vertex="1" parent="1">
          <mxGeometry x="2670" y="480" width="120" height="60" as="geometry" />
        </mxCell>
        <mxCell id="wFNt9a2i-XBwmgEseBS8-30" value="" style="endArrow=classic;html=1;rounded=0;exitX=0.5;exitY=1;exitDx=0;exitDy=0;entryX=0.5;entryY=0;entryDx=0;entryDy=0;" edge="1" parent="1" source="wFNt9a2i-XBwmgEseBS8-29" target="wFNt9a2i-XBwmgEseBS8-16">
          <mxGeometry width="50" height="50" relative="1" as="geometry">
            <mxPoint x="2520" y="420" as="sourcePoint" />
            <mxPoint x="2570" y="370" as="targetPoint" />
          </mxGeometry>
        </mxCell>
        <mxCell id="wFNt9a2i-XBwmgEseBS8-34" value="T (0, alto12/2, 0)" style="edgeLabel;html=1;align=center;verticalAlign=middle;resizable=0;points=[];" vertex="1" connectable="0" parent="wFNt9a2i-XBwmgEseBS8-30">
          <mxGeometry x="0.4096" y="2" relative="1" as="geometry">
            <mxPoint y="-10" as="offset" />
          </mxGeometry>
        </mxCell>
        <mxCell id="wFNt9a2i-XBwmgEseBS8-31" value="" style="endArrow=classic;html=1;rounded=0;entryX=0.5;entryY=0;entryDx=0;entryDy=0;exitX=0.5;exitY=1;exitDx=0;exitDy=0;" edge="1" parent="1" source="wFNt9a2i-XBwmgEseBS8-29" target="wFNt9a2i-XBwmgEseBS8-24">
          <mxGeometry width="50" height="50" relative="1" as="geometry">
            <mxPoint x="2520" y="420" as="sourcePoint" />
            <mxPoint x="2570" y="370" as="targetPoint" />
          </mxGeometry>
        </mxCell>
        <mxCell id="wFNt9a2i-XBwmgEseBS8-32" value="Parte Lateral Final" style="rounded=0;whiteSpace=wrap;html=1;" vertex="1" parent="1">
          <mxGeometry x="2500" y="340" width="120" height="60" as="geometry" />
        </mxCell>
        <mxCell id="wFNt9a2i-XBwmgEseBS8-33" value="" style="endArrow=classic;html=1;rounded=0;entryX=0.5;entryY=0;entryDx=0;entryDy=0;exitX=0.5;exitY=1;exitDx=0;exitDy=0;" edge="1" parent="1" source="wFNt9a2i-XBwmgEseBS8-32" target="wFNt9a2i-XBwmgEseBS8-29">
          <mxGeometry width="50" height="50" relative="1" as="geometry">
            <mxPoint x="2520" y="420" as="sourcePoint" />
            <mxPoint x="2570" y="370" as="targetPoint" />
          </mxGeometry>
        </mxCell>
        <mxCell id="wFNt9a2i-XBwmgEseBS8-35" value="T(0, 1, 0)" style="edgeLabel;html=1;align=center;verticalAlign=middle;resizable=0;points=[];" vertex="1" connectable="0" parent="wFNt9a2i-XBwmgEseBS8-33">
          <mxGeometry x="0.25" relative="1" as="geometry">
            <mxPoint x="-6" y="-1" as="offset" />
          </mxGeometry>
        </mxCell>
        <mxCell id="wFNt9a2i-XBwmgEseBS8-36" value="" style="endArrow=classic;html=1;rounded=0;exitX=1;exitY=0.5;exitDx=0;exitDy=0;entryX=0.5;entryY=0;entryDx=0;entryDy=0;" edge="1" parent="1" source="wFNt9a2i-XBwmgEseBS8-7" target="wFNt9a2i-XBwmgEseBS8-32">
          <mxGeometry width="50" height="50" relative="1" as="geometry">
            <mxPoint x="2420" y="150" as="sourcePoint" />
            <mxPoint x="2490" y="360" as="targetPoint" />
          </mxGeometry>
        </mxCell>
        <mxCell id="71YLPnyGHH5vvVkco8uU-1" value="Poligono[i]" style="rounded=0;whiteSpace=wrap;html=1;" vertex="1" parent="1">
          <mxGeometry x="2200" y="870" width="120" height="60" as="geometry" />
        </mxCell>
        <mxCell id="71YLPnyGHH5vvVkco8uU-2" value="P&lt;sub&gt;1&lt;/sub&gt;(-0.25, 0, 0)" style="rounded=0;whiteSpace=wrap;html=1;" vertex="1" parent="1">
          <mxGeometry x="2300" y="970" width="250" height="31" as="geometry" />
        </mxCell>
        <mxCell id="71YLPnyGHH5vvVkco8uU-3" value="P&lt;span style=&quot;font-size: 10px;&quot;&gt;2&lt;/span&gt;(-0.25, 0.1, -1)" style="rounded=0;whiteSpace=wrap;html=1;" vertex="1" parent="1">
          <mxGeometry x="2300" y="1017.5" width="250" height="36" as="geometry" />
        </mxCell>
        <mxCell id="71YLPnyGHH5vvVkco8uU-4" value="P&lt;span style=&quot;font-size: 10px;&quot;&gt;3&lt;/span&gt;(-0.25, 1, -1)" style="rounded=0;whiteSpace=wrap;html=1;" vertex="1" parent="1">
          <mxGeometry x="2300" y="1067.5" width="130" height="36" as="geometry" />
        </mxCell>
        <mxCell id="71YLPnyGHH5vvVkco8uU-5" value="P&lt;span style=&quot;font-size: 10px;&quot;&gt;4&lt;/span&gt;(-0.25, 1, 0)" style="rounded=0;whiteSpace=wrap;html=1;" vertex="1" parent="1">
          <mxGeometry x="2300" y="1117.5" width="250" height="36" as="geometry" />
        </mxCell>
        <mxCell id="71YLPnyGHH5vvVkco8uU-6" value="" style="curved=1;endArrow=classic;html=1;rounded=0;exitX=0.25;exitY=1;exitDx=0;exitDy=0;entryX=0;entryY=0.5;entryDx=0;entryDy=0;" edge="1" parent="1" source="71YLPnyGHH5vvVkco8uU-1" target="71YLPnyGHH5vvVkco8uU-2">
          <mxGeometry width="50" height="50" relative="1" as="geometry">
            <mxPoint x="2370" y="910" as="sourcePoint" />
            <mxPoint x="2420" y="860" as="targetPoint" />
            <Array as="points">
              <mxPoint x="2230" y="960" />
            </Array>
          </mxGeometry>
        </mxCell>
        <mxCell id="71YLPnyGHH5vvVkco8uU-7" value="" style="curved=1;endArrow=classic;html=1;rounded=0;exitX=0.25;exitY=1;exitDx=0;exitDy=0;entryX=0;entryY=0.5;entryDx=0;entryDy=0;" edge="1" parent="1" source="71YLPnyGHH5vvVkco8uU-1" target="71YLPnyGHH5vvVkco8uU-3">
          <mxGeometry width="50" height="50" relative="1" as="geometry">
            <mxPoint x="2270" y="920" as="sourcePoint" />
            <mxPoint x="2300" y="965.5" as="targetPoint" />
            <Array as="points">
              <mxPoint x="2230" y="1006" />
            </Array>
          </mxGeometry>
        </mxCell>
        <mxCell id="71YLPnyGHH5vvVkco8uU-8" value="" style="curved=1;endArrow=classic;html=1;rounded=0;exitX=0.25;exitY=1;exitDx=0;exitDy=0;entryX=0;entryY=0.5;entryDx=0;entryDy=0;" edge="1" parent="1" source="71YLPnyGHH5vvVkco8uU-1" target="71YLPnyGHH5vvVkco8uU-4">
          <mxGeometry width="50" height="50" relative="1" as="geometry">
            <mxPoint x="2270" y="920" as="sourcePoint" />
            <mxPoint x="2300" y="1015.5" as="targetPoint" />
            <Array as="points">
              <mxPoint x="2230" y="1050" />
            </Array>
          </mxGeometry>
        </mxCell>
        <mxCell id="71YLPnyGHH5vvVkco8uU-9" value="" style="curved=1;endArrow=classic;html=1;rounded=0;exitX=0.25;exitY=1;exitDx=0;exitDy=0;entryX=0;entryY=0.5;entryDx=0;entryDy=0;" edge="1" parent="1" source="71YLPnyGHH5vvVkco8uU-1" target="71YLPnyGHH5vvVkco8uU-5">
          <mxGeometry width="50" height="50" relative="1" as="geometry">
            <mxPoint x="2270" y="920" as="sourcePoint" />
            <mxPoint x="2300" y="1065.5" as="targetPoint" />
            <Array as="points">
              <mxPoint x="2230" y="1100" />
            </Array>
          </mxGeometry>
        </mxCell>
        <mxCell id="71YLPnyGHH5vvVkco8uU-11" value="" style="endArrow=classic;html=1;rounded=0;exitX=0.5;exitY=1;exitDx=0;exitDy=0;entryX=0.5;entryY=0;entryDx=0;entryDy=0;" edge="1" parent="1" source="iICLIXirbe9dpJ8QDpsS-112" target="71YLPnyGHH5vvVkco8uU-1">
          <mxGeometry width="50" height="50" relative="1" as="geometry">
            <mxPoint x="2340" y="870" as="sourcePoint" />
            <mxPoint x="2390" y="820" as="targetPoint" />
          </mxGeometry>
        </mxCell>
        <mxCell id="71YLPnyGHH5vvVkco8uU-12" value="extrusion(0.5, 0, 0)" style="edgeLabel;html=1;align=center;verticalAlign=middle;resizable=0;points=[];" vertex="1" connectable="0" parent="71YLPnyGHH5vvVkco8uU-11">
          <mxGeometry x="0.295" y="-2" relative="1" as="geometry">
            <mxPoint x="2" y="-15" as="offset" />
          </mxGeometry>
        </mxCell>
        <mxCell id="9tAJE_TmG-lsNWAI5LYa-1" value="Coef representa la variable que indica si es la parte izquierda o derecha la que se quiere dibujar.&lt;br&gt;Izquierda -&amp;gt; Coef = 0&lt;br&gt;Derecha -&amp;gt; Coef = 1" style="shape=note;whiteSpace=wrap;html=1;backgroundOutline=1;darkOpacity=0.05;" vertex="1" parent="1">
          <mxGeometry x="1240" y="860" width="260" height="130" as="geometry" />
        </mxCell>
      </root>
    </mxGraphModel>
  </diagram>
  <diagram id="Ib2HPkzNDA3UZFERFk1v" name="Rueda">
    <mxGraphModel dx="524" dy="913" grid="1" gridSize="10" guides="1" tooltips="1" connect="1" arrows="1" fold="1" page="1" pageScale="1" pageWidth="827" pageHeight="1169" math="0" shadow="0">
      <root>
        <mxCell id="0" />
        <mxCell id="1" parent="0" />
        <mxCell id="AwxvJ5cMeu-J7-L73Hxo-2" value="Rueda" style="rounded=0;whiteSpace=wrap;html=1;" vertex="1" parent="1">
          <mxGeometry x="280" y="180" width="120" height="60" as="geometry" />
        </mxCell>
        <mxCell id="AwxvJ5cMeu-J7-L73Hxo-3" value="Perfil" style="rounded=0;whiteSpace=wrap;html=1;" vertex="1" parent="1">
          <mxGeometry x="280" y="330" width="120" height="60" as="geometry" />
        </mxCell>
        <mxCell id="AwxvJ5cMeu-J7-L73Hxo-5" value="" style="endArrow=classic;html=1;rounded=0;exitX=0.5;exitY=1;exitDx=0;exitDy=0;entryX=0.5;entryY=0;entryDx=0;entryDy=0;" edge="1" parent="1" source="AwxvJ5cMeu-J7-L73Hxo-2" target="AwxvJ5cMeu-J7-L73Hxo-3">
          <mxGeometry width="50" height="50" relative="1" as="geometry">
            <mxPoint x="330" y="490" as="sourcePoint" />
            <mxPoint x="380" y="440" as="targetPoint" />
          </mxGeometry>
        </mxCell>
        <mxCell id="AwxvJ5cMeu-J7-L73Hxo-6" value="rotacion(LADOS_CIRCULO)" style="edgeLabel;html=1;align=center;verticalAlign=middle;resizable=0;points=[];" vertex="1" connectable="0" parent="AwxvJ5cMeu-J7-L73Hxo-5">
          <mxGeometry x="0.42" y="3" relative="1" as="geometry">
            <mxPoint x="-3" y="-4" as="offset" />
          </mxGeometry>
        </mxCell>
        <mxCell id="YZ_ClhjlyOcAq7yrzDXc-35" value="R (270, 0, 0, 1)" style="edgeLabel;html=1;align=center;verticalAlign=middle;resizable=0;points=[];" vertex="1" connectable="0" parent="AwxvJ5cMeu-J7-L73Hxo-5">
          <mxGeometry x="-0.4222" relative="1" as="geometry">
            <mxPoint as="offset" />
          </mxGeometry>
        </mxCell>
        <mxCell id="YZ_ClhjlyOcAq7yrzDXc-1" value="P&lt;sub&gt;1&lt;/sub&gt;(0, 0, 0)" style="rounded=0;whiteSpace=wrap;html=1;" vertex="1" parent="1">
          <mxGeometry x="190" y="410" width="70" height="31" as="geometry" />
        </mxCell>
        <mxCell id="YZ_ClhjlyOcAq7yrzDXc-5" value="" style="curved=1;endArrow=classic;html=1;rounded=0;exitX=0.25;exitY=1;exitDx=0;exitDy=0;entryX=1;entryY=0.5;entryDx=0;entryDy=0;" edge="1" parent="1" target="YZ_ClhjlyOcAq7yrzDXc-1">
          <mxGeometry width="50" height="50" relative="1" as="geometry">
            <mxPoint x="340" y="390" as="sourcePoint" />
            <mxPoint x="530" y="320" as="targetPoint" />
            <Array as="points">
              <mxPoint x="340" y="426" />
            </Array>
          </mxGeometry>
        </mxCell>
        <mxCell id="YZ_ClhjlyOcAq7yrzDXc-10" value="P&lt;sub&gt;2&lt;/sub&gt;(0.125, 0, 0)" style="rounded=0;whiteSpace=wrap;html=1;" vertex="1" parent="1">
          <mxGeometry x="170" y="451" width="90" height="30" as="geometry" />
        </mxCell>
        <mxCell id="YZ_ClhjlyOcAq7yrzDXc-11" value="" style="curved=1;endArrow=classic;html=1;rounded=0;exitX=0.5;exitY=1;exitDx=0;exitDy=0;entryX=1;entryY=0.5;entryDx=0;entryDy=0;" edge="1" parent="1" source="AwxvJ5cMeu-J7-L73Hxo-3" target="YZ_ClhjlyOcAq7yrzDXc-10">
          <mxGeometry width="50" height="50" relative="1" as="geometry">
            <mxPoint x="350" y="400" as="sourcePoint" />
            <mxPoint x="270" y="465.5" as="targetPoint" />
            <Array as="points">
              <mxPoint x="340" y="466" />
            </Array>
          </mxGeometry>
        </mxCell>
        <mxCell id="YZ_ClhjlyOcAq7yrzDXc-12" value="P&lt;sub&gt;3&lt;/sub&gt;(0.65, 0, 0)" style="rounded=0;whiteSpace=wrap;html=1;" vertex="1" parent="1">
          <mxGeometry x="170" y="491" width="90" height="28.5" as="geometry" />
        </mxCell>
        <mxCell id="YZ_ClhjlyOcAq7yrzDXc-13" value="P&lt;sub&gt;i&lt;/sub&gt;(0.65 + radio*sen(i*angulo), radio-radio*cos(i*angulo), 0)" style="rounded=0;whiteSpace=wrap;html=1;" vertex="1" parent="1">
          <mxGeometry x="175" y="700" width="330" height="31" as="geometry" />
        </mxCell>
        <mxCell id="YZ_ClhjlyOcAq7yrzDXc-14" value="radio = 0.15&lt;br&gt;angulo = M_PI / (LADOS_CIRCULO/8)" style="shape=note;whiteSpace=wrap;html=1;backgroundOutline=1;darkOpacity=0.05;" vertex="1" parent="1">
          <mxGeometry x="50" y="558.5" width="230" height="80" as="geometry" />
        </mxCell>
        <mxCell id="YZ_ClhjlyOcAq7yrzDXc-15" value="" style="endArrow=classic;html=1;rounded=0;exitX=0.5;exitY=1;exitDx=0;exitDy=0;entryX=0.5;entryY=0;entryDx=0;entryDy=0;" edge="1" parent="1" source="AwxvJ5cMeu-J7-L73Hxo-3" target="YZ_ClhjlyOcAq7yrzDXc-13">
          <mxGeometry width="50" height="50" relative="1" as="geometry">
            <mxPoint x="340" y="460" as="sourcePoint" />
            <mxPoint x="390" y="410" as="targetPoint" />
          </mxGeometry>
        </mxCell>
        <mxCell id="YZ_ClhjlyOcAq7yrzDXc-16" value="(i = 3; i &amp;lt; 3 + LADOS_CIRCULO/8)" style="edgeLabel;html=1;align=center;verticalAlign=middle;resizable=0;points=[];" vertex="1" connectable="0" parent="YZ_ClhjlyOcAq7yrzDXc-15">
          <mxGeometry x="0.7632" y="-2" relative="1" as="geometry">
            <mxPoint x="12" y="-3" as="offset" />
          </mxGeometry>
        </mxCell>
        <mxCell id="YZ_ClhjlyOcAq7yrzDXc-21" value="" style="curved=1;endArrow=classic;html=1;rounded=0;exitX=0.5;exitY=1;exitDx=0;exitDy=0;entryX=1;entryY=0.5;entryDx=0;entryDy=0;" edge="1" parent="1" source="AwxvJ5cMeu-J7-L73Hxo-3" target="YZ_ClhjlyOcAq7yrzDXc-12">
          <mxGeometry width="50" height="50" relative="1" as="geometry">
            <mxPoint x="350" y="400" as="sourcePoint" />
            <mxPoint x="270" y="508" as="targetPoint" />
            <Array as="points">
              <mxPoint x="340" y="505" />
            </Array>
          </mxGeometry>
        </mxCell>
        <mxCell id="YZ_ClhjlyOcAq7yrzDXc-22" value="P&lt;sub&gt;8+n&lt;/sub&gt;(0.05, 0.3, 0)" style="rounded=0;whiteSpace=wrap;html=1;" vertex="1" parent="1">
          <mxGeometry x="420" y="450" width="110" height="31" as="geometry" />
        </mxCell>
        <mxCell id="YZ_ClhjlyOcAq7yrzDXc-23" value="P&lt;sub&gt;7+n&lt;/sub&gt;(0.15, 0.33, 0)" style="rounded=0;whiteSpace=wrap;html=1;" vertex="1" parent="1">
          <mxGeometry x="420" y="491" width="110" height="30" as="geometry" />
        </mxCell>
        <mxCell id="YZ_ClhjlyOcAq7yrzDXc-24" value="P&lt;sub&gt;4+n&lt;/sub&gt;(0.65, 0.3, 0)" style="rounded=0;whiteSpace=wrap;html=1;" vertex="1" parent="1">
          <mxGeometry x="420" y="610" width="100" height="28.5" as="geometry" />
        </mxCell>
        <mxCell id="YZ_ClhjlyOcAq7yrzDXc-25" value="P&lt;sub&gt;5+n&lt;/sub&gt;(0.5, 0.31, 0)" style="rounded=0;whiteSpace=wrap;html=1;" vertex="1" parent="1">
          <mxGeometry x="420" y="570" width="100" height="28.5" as="geometry" />
        </mxCell>
        <mxCell id="YZ_ClhjlyOcAq7yrzDXc-26" value="P&lt;sub&gt;6+n&lt;/sub&gt;(0.47, 0.33, 0)" style="rounded=0;whiteSpace=wrap;html=1;" vertex="1" parent="1">
          <mxGeometry x="420" y="530" width="110" height="28.5" as="geometry" />
        </mxCell>
        <mxCell id="YZ_ClhjlyOcAq7yrzDXc-27" value="P&lt;sub&gt;9+n&lt;/sub&gt;(0, 0.33, 0)" style="rounded=0;whiteSpace=wrap;html=1;" vertex="1" parent="1">
          <mxGeometry x="420" y="410" width="110" height="31" as="geometry" />
        </mxCell>
        <mxCell id="YZ_ClhjlyOcAq7yrzDXc-28" value="" style="curved=1;endArrow=classic;html=1;rounded=0;exitX=0.5;exitY=1;exitDx=0;exitDy=0;entryX=0;entryY=0.5;entryDx=0;entryDy=0;" edge="1" parent="1" source="AwxvJ5cMeu-J7-L73Hxo-3" target="YZ_ClhjlyOcAq7yrzDXc-27">
          <mxGeometry width="50" height="50" relative="1" as="geometry">
            <mxPoint x="350" y="400" as="sourcePoint" />
            <mxPoint x="270" y="435.5" as="targetPoint" />
            <Array as="points">
              <mxPoint x="340" y="426" />
            </Array>
          </mxGeometry>
        </mxCell>
        <mxCell id="YZ_ClhjlyOcAq7yrzDXc-29" value="" style="curved=1;endArrow=classic;html=1;rounded=0;exitX=0.5;exitY=1;exitDx=0;exitDy=0;entryX=0;entryY=0.5;entryDx=0;entryDy=0;" edge="1" parent="1" source="AwxvJ5cMeu-J7-L73Hxo-3" target="YZ_ClhjlyOcAq7yrzDXc-22">
          <mxGeometry width="50" height="50" relative="1" as="geometry">
            <mxPoint x="340" y="390" as="sourcePoint" />
            <mxPoint x="260" y="466" as="targetPoint" />
            <Array as="points">
              <mxPoint x="340" y="466" />
            </Array>
          </mxGeometry>
        </mxCell>
        <mxCell id="YZ_ClhjlyOcAq7yrzDXc-30" value="" style="curved=1;endArrow=classic;html=1;rounded=0;exitX=0.5;exitY=1;exitDx=0;exitDy=0;entryX=0;entryY=0.5;entryDx=0;entryDy=0;" edge="1" parent="1" source="AwxvJ5cMeu-J7-L73Hxo-3" target="YZ_ClhjlyOcAq7yrzDXc-23">
          <mxGeometry width="50" height="50" relative="1" as="geometry">
            <mxPoint x="340" y="390" as="sourcePoint" />
            <mxPoint x="260" y="505.25" as="targetPoint" />
            <Array as="points">
              <mxPoint x="340" y="505" />
            </Array>
          </mxGeometry>
        </mxCell>
        <mxCell id="YZ_ClhjlyOcAq7yrzDXc-31" value="" style="curved=1;endArrow=classic;html=1;rounded=0;exitX=0.5;exitY=1;exitDx=0;exitDy=0;entryX=0;entryY=0.5;entryDx=0;entryDy=0;" edge="1" parent="1" source="AwxvJ5cMeu-J7-L73Hxo-3" target="YZ_ClhjlyOcAq7yrzDXc-26">
          <mxGeometry width="50" height="50" relative="1" as="geometry">
            <mxPoint x="340" y="430" as="sourcePoint" />
            <mxPoint x="420" y="546" as="targetPoint" />
            <Array as="points">
              <mxPoint x="340" y="545" />
            </Array>
          </mxGeometry>
        </mxCell>
        <mxCell id="YZ_ClhjlyOcAq7yrzDXc-33" value="" style="curved=1;endArrow=classic;html=1;rounded=0;exitX=0.5;exitY=1;exitDx=0;exitDy=0;entryX=0;entryY=0.5;entryDx=0;entryDy=0;" edge="1" parent="1" source="AwxvJ5cMeu-J7-L73Hxo-3" target="YZ_ClhjlyOcAq7yrzDXc-25">
          <mxGeometry width="50" height="50" relative="1" as="geometry">
            <mxPoint x="340" y="430" as="sourcePoint" />
            <mxPoint x="420" y="584.25" as="targetPoint" />
            <Array as="points">
              <mxPoint x="340" y="585" />
            </Array>
          </mxGeometry>
        </mxCell>
        <mxCell id="YZ_ClhjlyOcAq7yrzDXc-34" value="" style="curved=1;endArrow=classic;html=1;rounded=0;exitX=0.5;exitY=1;exitDx=0;exitDy=0;entryX=0;entryY=0.5;entryDx=0;entryDy=0;" edge="1" parent="1" source="AwxvJ5cMeu-J7-L73Hxo-3" target="YZ_ClhjlyOcAq7yrzDXc-24">
          <mxGeometry width="50" height="50" relative="1" as="geometry">
            <mxPoint x="340" y="430" as="sourcePoint" />
            <mxPoint x="420" y="624.25" as="targetPoint" />
            <Array as="points">
              <mxPoint x="340" y="625" />
            </Array>
          </mxGeometry>
        </mxCell>
      </root>
    </mxGraphModel>
  </diagram>
  <diagram id="dCTErvUBilUTV5UFJ40f" name="Puerta - Retrovisor">
    <mxGraphModel dx="1746" dy="1075" grid="1" gridSize="10" guides="1" tooltips="1" connect="1" arrows="1" fold="1" page="1" pageScale="1" pageWidth="827" pageHeight="1169" math="0" shadow="0">
      <root>
        <mxCell id="0" />
        <mxCell id="1" parent="0" />
        <mxCell id="AlgQXUaLiqID-TfbWxsh-1" value="Pieza 2 - Retrovisor" style="rounded=0;whiteSpace=wrap;html=1;" vertex="1" parent="1">
          <mxGeometry x="380" y="320" width="120" height="60" as="geometry" />
        </mxCell>
        <mxCell id="AlgQXUaLiqID-TfbWxsh-4" value="Cilindro" style="rounded=0;whiteSpace=wrap;html=1;" vertex="1" parent="1">
          <mxGeometry x="310" y="940" width="120" height="60" as="geometry" />
        </mxCell>
        <mxCell id="AlgQXUaLiqID-TfbWxsh-5" value="Cristal" style="rounded=0;whiteSpace=wrap;html=1;" vertex="1" parent="1">
          <mxGeometry x="50" y="780" width="120" height="60" as="geometry" />
        </mxCell>
        <mxCell id="AlgQXUaLiqID-TfbWxsh-6" value="Soporte cristal" style="rounded=0;whiteSpace=wrap;html=1;" vertex="1" parent="1">
          <mxGeometry x="310" y="780" width="120" height="60" as="geometry" />
        </mxCell>
        <mxCell id="AlgQXUaLiqID-TfbWxsh-7" value="Brazo" style="rounded=0;whiteSpace=wrap;html=1;" vertex="1" parent="1">
          <mxGeometry x="510" y="780" width="120" height="60" as="geometry" />
        </mxCell>
        <mxCell id="AlgQXUaLiqID-TfbWxsh-10" value="" style="endArrow=classic;html=1;rounded=0;exitX=0.5;exitY=1;exitDx=0;exitDy=0;entryX=0.25;entryY=0;entryDx=0;entryDy=0;" edge="1" parent="1" source="AlgQXUaLiqID-TfbWxsh-5" target="AlgQXUaLiqID-TfbWxsh-4">
          <mxGeometry width="50" height="50" relative="1" as="geometry">
            <mxPoint x="340" y="920" as="sourcePoint" />
            <mxPoint x="390" y="870" as="targetPoint" />
          </mxGeometry>
        </mxCell>
        <mxCell id="AlgQXUaLiqID-TfbWxsh-13" value="R (90, 1, 0, 0)" style="edgeLabel;html=1;align=center;verticalAlign=middle;resizable=0;points=[];" vertex="1" connectable="0" parent="AlgQXUaLiqID-TfbWxsh-10">
          <mxGeometry x="-0.598" y="-3" relative="1" as="geometry">
            <mxPoint x="115" y="47" as="offset" />
          </mxGeometry>
        </mxCell>
        <mxCell id="AlgQXUaLiqID-TfbWxsh-14" value="S (largo1*0.95, alto1*0.95, ancho1*0.95)" style="edgeLabel;html=1;align=center;verticalAlign=middle;resizable=0;points=[];" vertex="1" connectable="0" parent="AlgQXUaLiqID-TfbWxsh-10">
          <mxGeometry x="-0.5005" relative="1" as="geometry">
            <mxPoint x="-8" y="-5" as="offset" />
          </mxGeometry>
        </mxCell>
        <mxCell id="AlgQXUaLiqID-TfbWxsh-19" value="T (0, 0, -0.5)" style="edgeLabel;html=1;align=center;verticalAlign=middle;resizable=0;points=[];" vertex="1" connectable="0" parent="AlgQXUaLiqID-TfbWxsh-10">
          <mxGeometry x="-0.2647" y="-2" relative="1" as="geometry">
            <mxPoint x="15" y="1" as="offset" />
          </mxGeometry>
        </mxCell>
        <mxCell id="AlgQXUaLiqID-TfbWxsh-11" value="" style="endArrow=classic;html=1;rounded=0;exitX=0.5;exitY=1;exitDx=0;exitDy=0;entryX=0.5;entryY=0;entryDx=0;entryDy=0;" edge="1" parent="1" source="AlgQXUaLiqID-TfbWxsh-6" target="AlgQXUaLiqID-TfbWxsh-4">
          <mxGeometry width="50" height="50" relative="1" as="geometry">
            <mxPoint x="340" y="920" as="sourcePoint" />
            <mxPoint x="390" y="870" as="targetPoint" />
          </mxGeometry>
        </mxCell>
        <mxCell id="AlgQXUaLiqID-TfbWxsh-15" value="S (0.25, 0.2, 0.05)" style="edgeLabel;html=1;align=center;verticalAlign=middle;resizable=0;points=[];" vertex="1" connectable="0" parent="AlgQXUaLiqID-TfbWxsh-11">
          <mxGeometry x="-0.6447" y="2" relative="1" as="geometry">
            <mxPoint y="2" as="offset" />
          </mxGeometry>
        </mxCell>
        <mxCell id="AlgQXUaLiqID-TfbWxsh-16" value="R (90, 1, 0, 0)" style="edgeLabel;html=1;align=center;verticalAlign=middle;resizable=0;points=[];" vertex="1" connectable="0" parent="AlgQXUaLiqID-TfbWxsh-11">
          <mxGeometry x="0.3906" y="-2" relative="1" as="geometry">
            <mxPoint y="1" as="offset" />
          </mxGeometry>
        </mxCell>
        <mxCell id="AlgQXUaLiqID-TfbWxsh-17" value="T (0, 0, -0.5)" style="edgeLabel;html=1;align=center;verticalAlign=middle;resizable=0;points=[];" vertex="1" connectable="0" parent="AlgQXUaLiqID-TfbWxsh-11">
          <mxGeometry x="-0.2918" y="-1" relative="1" as="geometry">
            <mxPoint y="5" as="offset" />
          </mxGeometry>
        </mxCell>
        <mxCell id="AlgQXUaLiqID-TfbWxsh-12" value="" style="endArrow=classic;html=1;rounded=0;exitX=0.5;exitY=1;exitDx=0;exitDy=0;entryX=0.75;entryY=0;entryDx=0;entryDy=0;" edge="1" parent="1" source="AlgQXUaLiqID-TfbWxsh-7" target="AlgQXUaLiqID-TfbWxsh-4">
          <mxGeometry width="50" height="50" relative="1" as="geometry">
            <mxPoint x="340" y="920" as="sourcePoint" />
            <mxPoint x="390" y="870" as="targetPoint" />
          </mxGeometry>
        </mxCell>
        <mxCell id="AlgQXUaLiqID-TfbWxsh-29" value="R (90, 1, 0, 0)" style="edgeLabel;html=1;align=center;verticalAlign=middle;resizable=0;points=[];" vertex="1" connectable="0" parent="AlgQXUaLiqID-TfbWxsh-12">
          <mxGeometry x="0.2532" y="1" relative="1" as="geometry">
            <mxPoint x="-14" y="7" as="offset" />
          </mxGeometry>
        </mxCell>
        <mxCell id="AlgQXUaLiqID-TfbWxsh-30" value="T (-0.5, 0, 0)" style="edgeLabel;html=1;align=center;verticalAlign=middle;resizable=0;points=[];" vertex="1" connectable="0" parent="AlgQXUaLiqID-TfbWxsh-12">
          <mxGeometry x="-0.2211" y="3" relative="1" as="geometry">
            <mxPoint as="offset" />
          </mxGeometry>
        </mxCell>
        <mxCell id="AlgQXUaLiqID-TfbWxsh-31" value="S (0.2, 0.02, 0.02)" style="edgeLabel;html=1;align=center;verticalAlign=middle;resizable=0;points=[];" vertex="1" connectable="0" parent="AlgQXUaLiqID-TfbWxsh-12">
          <mxGeometry x="-0.6772" y="1" relative="1" as="geometry">
            <mxPoint as="offset" />
          </mxGeometry>
        </mxCell>
        <mxCell id="AlgQXUaLiqID-TfbWxsh-21" value="Cuerpo retrovisor" style="rounded=0;whiteSpace=wrap;html=1;" vertex="1" parent="1">
          <mxGeometry x="210" y="650" width="120" height="60" as="geometry" />
        </mxCell>
        <mxCell id="AlgQXUaLiqID-TfbWxsh-22" value="" style="endArrow=classic;html=1;rounded=0;exitX=0.5;exitY=1;exitDx=0;exitDy=0;entryX=0.5;entryY=0;entryDx=0;entryDy=0;" edge="1" parent="1" source="AlgQXUaLiqID-TfbWxsh-21" target="AlgQXUaLiqID-TfbWxsh-5">
          <mxGeometry width="50" height="50" relative="1" as="geometry">
            <mxPoint x="340" y="920" as="sourcePoint" />
            <mxPoint x="390" y="870" as="targetPoint" />
          </mxGeometry>
        </mxCell>
        <mxCell id="AlgQXUaLiqID-TfbWxsh-24" value="T (0, 0, -ancho1/2 - ancho1/6)" style="edgeLabel;html=1;align=center;verticalAlign=middle;resizable=0;points=[];" vertex="1" connectable="0" parent="AlgQXUaLiqID-TfbWxsh-22">
          <mxGeometry x="0.4572" y="-3" relative="1" as="geometry">
            <mxPoint x="1" as="offset" />
          </mxGeometry>
        </mxCell>
        <mxCell id="AlgQXUaLiqID-TfbWxsh-23" value="" style="endArrow=classic;html=1;rounded=0;exitX=0.5;exitY=1;exitDx=0;exitDy=0;entryX=0.5;entryY=0;entryDx=0;entryDy=0;" edge="1" parent="1" source="AlgQXUaLiqID-TfbWxsh-21" target="AlgQXUaLiqID-TfbWxsh-6">
          <mxGeometry width="50" height="50" relative="1" as="geometry">
            <mxPoint x="340" y="920" as="sourcePoint" />
            <mxPoint x="390" y="870" as="targetPoint" />
          </mxGeometry>
        </mxCell>
        <mxCell id="AlgQXUaLiqID-TfbWxsh-25" value="" style="endArrow=classic;html=1;rounded=0;exitX=0.5;exitY=1;exitDx=0;exitDy=0;entryX=0.5;entryY=0;entryDx=0;entryDy=0;" edge="1" parent="1" source="AlgQXUaLiqID-TfbWxsh-1" target="AlgQXUaLiqID-TfbWxsh-21">
          <mxGeometry width="50" height="50" relative="1" as="geometry">
            <mxPoint x="200" y="920" as="sourcePoint" />
            <mxPoint x="250" y="870" as="targetPoint" />
          </mxGeometry>
        </mxCell>
        <mxCell id="AlgQXUaLiqID-TfbWxsh-26" value="R (10*(1-2*coef), 0, 1, 0)" style="edgeLabel;html=1;align=center;verticalAlign=middle;resizable=0;points=[];" vertex="1" connectable="0" parent="AlgQXUaLiqID-TfbWxsh-25">
          <mxGeometry x="0.3048" y="2" relative="1" as="geometry">
            <mxPoint x="-1" as="offset" />
          </mxGeometry>
        </mxCell>
        <mxCell id="AlgQXUaLiqID-TfbWxsh-27" value="T ((largo1/2)*(1-2*coef), 0, 0)" style="edgeLabel;html=1;align=center;verticalAlign=middle;resizable=0;points=[];" vertex="1" connectable="0" parent="AlgQXUaLiqID-TfbWxsh-25">
          <mxGeometry x="-0.4029" y="-1" relative="1" as="geometry">
            <mxPoint x="-9" y="11" as="offset" />
          </mxGeometry>
        </mxCell>
        <mxCell id="AlgQXUaLiqID-TfbWxsh-28" value="" style="endArrow=classic;html=1;rounded=0;exitX=0.5;exitY=1;exitDx=0;exitDy=0;entryX=0.5;entryY=0;entryDx=0;entryDy=0;" edge="1" parent="1" source="AlgQXUaLiqID-TfbWxsh-1" target="AlgQXUaLiqID-TfbWxsh-7">
          <mxGeometry width="50" height="50" relative="1" as="geometry">
            <mxPoint x="430" y="920" as="sourcePoint" />
            <mxPoint x="480" y="870" as="targetPoint" />
          </mxGeometry>
        </mxCell>
        <mxCell id="AlgQXUaLiqID-TfbWxsh-32" value="T ((-largo2/2+0.02)*(1-2*coef), 0, 0)" style="edgeLabel;html=1;align=center;verticalAlign=middle;resizable=0;points=[];" vertex="1" connectable="0" parent="AlgQXUaLiqID-TfbWxsh-28">
          <mxGeometry x="0.6511" y="4" relative="1" as="geometry">
            <mxPoint x="-21" y="-38" as="offset" />
          </mxGeometry>
        </mxCell>
        <mxCell id="AlgQXUaLiqID-TfbWxsh-33" value="R (30*(1-2*coef), 0, 0, 1)" style="edgeLabel;html=1;align=center;verticalAlign=middle;resizable=0;points=[];" vertex="1" connectable="0" parent="AlgQXUaLiqID-TfbWxsh-28">
          <mxGeometry x="0.1266" y="-1" relative="1" as="geometry">
            <mxPoint x="-12" y="-40" as="offset" />
          </mxGeometry>
        </mxCell>
        <mxCell id="xAhCSEDVSEYQTDGrzwMw-1" value="Coef representa la variable que indica si es la parte izquierda o derecha la que se quiere dibujar.&lt;br&gt;Izquierda -&amp;gt; Coef = 0&lt;br&gt;Derecha -&amp;gt; Coef = 1" style="shape=note;whiteSpace=wrap;html=1;backgroundOutline=1;darkOpacity=0.05;" vertex="1" parent="1">
          <mxGeometry x="20" y="390" width="260" height="130" as="geometry" />
        </mxCell>
        <mxCell id="9uRhyDRdA7j3rL8YwnHB-1" value="Cubo" style="rounded=0;whiteSpace=wrap;html=1;" vertex="1" parent="1">
          <mxGeometry x="630" y="940" width="120" height="60" as="geometry" />
        </mxCell>
        <mxCell id="9uRhyDRdA7j3rL8YwnHB-2" value="Pieza 1 - Puerta" style="rounded=0;whiteSpace=wrap;html=1;" vertex="1" parent="1">
          <mxGeometry x="630" y="320" width="120" height="60" as="geometry" />
        </mxCell>
        <mxCell id="9uRhyDRdA7j3rL8YwnHB-4" value="" style="endArrow=classic;html=1;rounded=0;exitX=0.5;exitY=1;exitDx=0;exitDy=0;entryX=0.5;entryY=0;entryDx=0;entryDy=0;" edge="1" parent="1" source="9uRhyDRdA7j3rL8YwnHB-2" target="9uRhyDRdA7j3rL8YwnHB-1">
          <mxGeometry width="50" height="50" relative="1" as="geometry">
            <mxPoint x="460" y="430" as="sourcePoint" />
            <mxPoint x="510" y="380" as="targetPoint" />
          </mxGeometry>
        </mxCell>
        <mxCell id="9uRhyDRdA7j3rL8YwnHB-5" value="S (0.25, 1.5, 2.25)" style="edgeLabel;html=1;align=center;verticalAlign=middle;resizable=0;points=[];" vertex="1" connectable="0" parent="9uRhyDRdA7j3rL8YwnHB-4">
          <mxGeometry x="0.3774" y="-3" relative="1" as="geometry">
            <mxPoint y="-336" as="offset" />
          </mxGeometry>
        </mxCell>
        <mxCell id="9uRhyDRdA7j3rL8YwnHB-6" value="Puerta" style="rounded=0;whiteSpace=wrap;html=1;" vertex="1" parent="1">
          <mxGeometry x="510" y="70" width="120" height="60" as="geometry" />
        </mxCell>
        <mxCell id="9uRhyDRdA7j3rL8YwnHB-7" value="" style="endArrow=classic;html=1;rounded=0;exitX=0.5;exitY=1;exitDx=0;exitDy=0;entryX=0.5;entryY=0;entryDx=0;entryDy=0;" edge="1" parent="1" source="9uRhyDRdA7j3rL8YwnHB-6" target="AlgQXUaLiqID-TfbWxsh-1">
          <mxGeometry width="50" height="50" relative="1" as="geometry">
            <mxPoint x="460" y="270" as="sourcePoint" />
            <mxPoint x="510" y="220" as="targetPoint" />
          </mxGeometry>
        </mxCell>
        <mxCell id="9uRhyDRdA7j3rL8YwnHB-9" value="T ((largo1/2 + 0.125)*(1-2*coef), alto1 + 0.05, -ancho1*2/11)" style="edgeLabel;html=1;align=center;verticalAlign=middle;resizable=0;points=[];" vertex="1" connectable="0" parent="9uRhyDRdA7j3rL8YwnHB-7">
          <mxGeometry x="0.4688" y="2" relative="1" as="geometry">
            <mxPoint x="-26" y="-11" as="offset" />
          </mxGeometry>
        </mxCell>
        <mxCell id="9uRhyDRdA7j3rL8YwnHB-8" value="" style="endArrow=classic;html=1;rounded=0;exitX=0.5;exitY=1;exitDx=0;exitDy=0;entryX=0.5;entryY=0;entryDx=0;entryDy=0;" edge="1" parent="1" source="9uRhyDRdA7j3rL8YwnHB-6" target="9uRhyDRdA7j3rL8YwnHB-2">
          <mxGeometry width="50" height="50" relative="1" as="geometry">
            <mxPoint x="460" y="270" as="sourcePoint" />
            <mxPoint x="510" y="220" as="targetPoint" />
          </mxGeometry>
        </mxCell>
        <mxCell id="9uRhyDRdA7j3rL8YwnHB-10" value="T(0, 0, -ancho1/2)" style="edgeLabel;html=1;align=center;verticalAlign=middle;resizable=0;points=[];" vertex="1" connectable="0" parent="9uRhyDRdA7j3rL8YwnHB-8">
          <mxGeometry x="0.6154" y="4" relative="1" as="geometry">
            <mxPoint x="-30" y="-61" as="offset" />
          </mxGeometry>
        </mxCell>
      </root>
    </mxGraphModel>
  </diagram>
  <diagram id="o-XX-S7Y6vQvW1VQr-Sf" name="Página-6">
    <mxGraphModel dx="562" dy="913" grid="1" gridSize="10" guides="1" tooltips="1" connect="1" arrows="1" fold="1" page="1" pageScale="1" pageWidth="827" pageHeight="1169" math="0" shadow="0">
      <root>
        <mxCell id="0" />
        <mxCell id="1" parent="0" />
      </root>
    </mxGraphModel>
  </diagram>
</mxfile>
